<svg xmlns="http://www.w3.org/2000/svg" width="40" height="40" fill="none" viewBox="0 0 40 40">
    <rect width="39" height="39" x=".5" y=".5" fill="#fff" stroke="#000" rx="7.5"/>
    <path fill="#000" fill-rule="evenodd" d="M12.15 7.81c-.097.242-.15.534-.15.872v20.636c0 .338.053.63.15.872L23.057 19 12.15 7.81zm.688 23.107c.4.158.914.095 1.473-.23l12.84-7.486-3.396-3.485-10.917 11.201zm15.205-8.235l4.004-2.334c1.27-.742 1.27-1.954 0-2.695l-4.006-2.335-3.588 3.681 3.59 3.683zM27.15 14.8L14.311 7.314c-.559-.326-1.072-.39-1.473-.231l10.917 11.2 3.395-3.484z" clip-rule="evenodd"/>
</svg>
