<svg xmlns="http://www.w3.org/2000/svg" width="251" height="211" fill="none" viewBox="0 0 251 211">
    <g clip-path="url(#clip0)">
        <path fill="#FA3600" fill-rule="evenodd" d="M105.1 35.383h145.711v59.871s-57.846 3.93-85.746-4.022c-9.813-2.798-2.501-6.837-5.387-11.448-2.584-4.13-13.083-14.237-13.083-14.237s-15.164-10.454-25.165-15.201c-4.334-2.057-10.767.765-14.066-2.832-1.777-1.937-2.264-12.13-2.264-12.13z" clip-rule="evenodd" opacity=".01"/>
        <mask id="xuoulhfcla" width="146" height="62" x="105" y="35" maskUnits="userSpaceOnUse">
            <path fill="#fff" fill-rule="evenodd" d="M105.1 35.383h145.711v59.871s-57.846 3.93-85.746-4.022c-9.813-2.798-2.501-6.837-5.387-11.448-2.584-4.13-13.083-14.237-13.083-14.237s-15.164-10.454-25.165-15.201c-4.334-2.057-10.767.765-14.066-2.832-1.777-1.937-2.264-12.13-2.264-12.13z" clip-rule="evenodd"/>
        </mask>
        <g mask="url(#xuoulhfcla)">
            <path fill="#FA3600" d="M120.699 50.605c-.251-2.733-2.429-5.03-6.008-5.03-3.948 0-6.535 2.786-6.535 7.196 0 4.49 2.587 7.21 6.562 7.21 3.34 0 5.704-2.008 6.008-4.965h-2.747c-.33 1.61-1.479 2.574-3.235 2.574-2.218 0-3.684-1.77-3.684-4.82 0-2.983 1.453-4.819 3.658-4.819 1.862 0 2.971 1.176 3.261 2.654h2.72zm6.001 9.349c1.822 0 3.578-.977 4.383-2.522h.066v2.284h2.734v-9.573c0-2.786-2.153-4.568-5.52-4.568-3.433 0-5.572 1.848-5.73 4.357h2.694c.25-1.241 1.28-2.033 2.931-2.033 1.743 0 2.786.924 2.786 2.469v1.07l-3.803.224c-3.301.185-5.163 1.677-5.163 4.106 0 2.496 1.902 4.186 4.622 4.186zm.792-2.258c-1.532 0-2.535-.792-2.535-2.007 0-1.188.964-1.941 2.667-2.06l3.42-.211v1.096c0 1.809-1.558 3.182-3.552 3.182zm9.051 2.02h2.852v-8.318c0-1.968 1.135-3.196 2.971-3.196.554 0 1.056.066 1.28.159v-2.654c-.211-.04-.567-.106-.977-.106-1.637 0-2.878.964-3.34 2.588h-.066v-2.363h-2.72v13.89zm15.996-14.115c-2.007 0-3.605 1.017-4.424 2.614h-.052v-2.39h-2.76v18.486h2.852v-6.88h.066c.792 1.546 2.377 2.523 4.371 2.523 3.485 0 5.796-2.786 5.796-7.183s-2.324-7.17-5.849-7.17zm-.753 11.936c-2.192 0-3.644-1.874-3.644-4.766 0-2.865 1.465-4.767 3.644-4.767 2.258 0 3.671 1.862 3.671 4.767 0 2.918-1.413 4.766-3.671 4.766zm14.662 2.443c3.975 0 6.589-2.733 6.589-7.21 0-4.462-2.627-7.195-6.589-7.195-3.961 0-6.588 2.733-6.588 7.196 0 4.476 2.614 7.21 6.588 7.21zm0-2.35c-2.231 0-3.683-1.77-3.683-4.86 0-3.076 1.452-4.845 3.683-4.845 2.232 0 3.684 1.77 3.684 4.846 0 3.09-1.439 4.859-3.684 4.859zm14.65 2.35c3.974 0 6.588-2.733 6.588-7.21 0-4.462-2.627-7.195-6.588-7.195-3.961 0-6.589 2.733-6.589 7.196 0 4.476 2.614 7.21 6.589 7.21zm0-2.35c-2.232 0-3.684-1.77-3.684-4.86 0-3.076 1.452-4.845 3.684-4.845 2.231 0 3.684 1.77 3.684 4.846 0 3.09-1.44 4.859-3.684 4.859zm8.786 2.086h2.852V40.663h-2.852v19.053zm-81.108 27h2.852v-8.582c0-1.783 1.202-3.103 2.892-3.103 1.611 0 2.627 1.016 2.627 2.614v9.071h2.799v-8.675c0-1.756 1.176-3.01 2.866-3.01 1.69 0 2.654 1.03 2.654 2.825v8.86h2.865V77.17c0-2.76-1.796-4.582-4.542-4.582-1.981 0-3.618 1.03-4.331 2.72h-.066c-.555-1.73-1.954-2.72-3.882-2.72-1.875 0-3.327 1.03-3.948 2.575h-.066v-2.337h-2.72v13.89zm26.269.238c1.822 0 3.578-.977 4.383-2.522h.066v2.284h2.733v-9.573c0-2.786-2.152-4.568-5.519-4.568-3.433 0-5.572 1.848-5.73 4.357h2.693c.251-1.241 1.281-2.033 2.932-2.033 1.743 0 2.786.924 2.786 2.469v1.07l-3.803.224c-3.301.185-5.163 1.677-5.163 4.106 0 2.496 1.902 4.186 4.622 4.186zm.792-2.258c-1.532 0-2.535-.792-2.535-2.007 0-1.188.964-1.941 2.667-2.06l3.42-.211v1.096c0 1.809-1.558 3.182-3.552 3.182zm14.266 2.258c2.02 0 3.605-1.017 4.423-2.601h.053v2.363h2.773V67.663h-2.865v7.473h-.053c-.779-1.531-2.364-2.535-4.357-2.535-3.486 0-5.81 2.786-5.81 7.17 0 4.383 2.324 7.183 5.836 7.183zm.753-11.95c2.192 0 3.657 1.888 3.657 4.767 0 2.905-1.465 4.766-3.657 4.766-2.258 0-3.671-1.835-3.671-4.766 0-2.918 1.413-4.767 3.671-4.767zm18.518 7.632c-.383 1.215-1.585 2.033-3.209 2.033-2.284 0-3.737-1.597-3.737-4.013v-.172h9.811v-.977c0-4.212-2.403-6.932-6.259-6.932-3.921 0-6.43 2.905-6.43 7.262 0 4.383 2.469 7.143 6.549 7.143 3.182 0 5.585-1.809 5.981-4.344h-2.706zm-3.394-7.764c1.994 0 3.341 1.492 3.407 3.618h-6.945c.145-2.1 1.544-3.618 3.538-3.618zm22.948 7.764c-.383 1.215-1.585 2.033-3.209 2.033-2.284 0-3.737-1.597-3.737-4.013v-.172h9.811v-.977c0-4.212-2.403-6.932-6.259-6.932-3.921 0-6.43 2.905-6.43 7.262 0 4.383 2.469 7.143 6.549 7.143 3.182 0 5.585-1.809 5.981-4.344h-2.706zm-3.394-7.764c1.994 0 3.341 1.492 3.407 3.618h-6.945c.145-2.1 1.544-3.618 3.538-3.618zm12.431 12.082c1.822 0 3.578-.977 4.384-2.522h.066v2.284h2.733v-9.573c0-2.786-2.152-4.568-5.519-4.568-3.433 0-5.572 1.848-5.731 4.357h2.694c.251-1.241 1.281-2.033 2.931-2.033 1.743 0 2.786.924 2.786 2.469v1.07l-3.803.224c-3.301.185-5.162 1.677-5.162 4.106 0 2.496 1.901 4.186 4.621 4.186zm.792-2.258c-1.531 0-2.535-.792-2.535-2.007 0-1.188.964-1.941 2.667-2.06l3.42-.211v1.096c0 1.809-1.558 3.182-3.552 3.182zm8.8-7.936c0 2.02 1.307 3.288 3.948 3.895l2.258.529c1.518.343 2.033.871 2.033 1.769 0 1.135-1.056 1.849-2.772 1.849-1.743 0-2.734-.714-2.998-2.166h-2.825c.264 2.64 2.35 4.344 5.823 4.344 3.274 0 5.638-1.743 5.638-4.278 0-2.007-1.083-3.116-3.922-3.776l-2.258-.515c-1.505-.344-2.139-.938-2.139-1.81 0-1.108 1.03-1.86 2.575-1.86 1.598 0 2.588.844 2.746 2.191h2.681c-.093-2.561-2.192-4.357-5.427-4.357-3.195 0-5.361 1.703-5.361 4.185zm14.57 15.132c2.879 0 4.252-1.083 5.44-4.45l5.202-14.616h-3.01l-3.512 11.302h-.053l-3.512-11.302h-3.09l5.017 13.903c0 .013-.25.832-.25.859-.436 1.425-1.149 1.98-2.47 1.98-.237 0-.713 0-.924-.053v2.31c.211.04.924.067 1.162.067z"/>
        </g>
    </g>
    <g clip-path="url(#clip1)">
        <path fill="#D8D8D8" fill-rule="evenodd" d="M105.1 45.37s20.011 5.007 29.119 8.948c9.109 3.94 15.765 10.47 15.765 10.47s7.044 10.045 10.309 15.437c3.265 5.392 6.842 12.885 6.842 12.885H105.1V45.37z" clip-rule="evenodd" opacity=".01"/>
        <mask id="c4kqxuk4ib" width="63" height="49" x="105" y="45" maskUnits="userSpaceOnUse">
            <path fill="#fff" fill-rule="evenodd" d="M105.1 45.37s20.011 5.007 29.119 8.948c9.109 3.94 15.765 10.47 15.765 10.47s7.044 10.045 10.309 15.437c3.265 5.392 6.842 12.885 6.842 12.885H105.1V45.37z" clip-rule="evenodd"/>
        </mask>
        <g mask="url(#c4kqxuk4ib)">
            <path fill="#FA3600" d="M120.699 49.018c-.251-2.734-2.429-5.031-6.008-5.031-3.948 0-6.535 2.786-6.535 7.196 0 4.49 2.587 7.21 6.562 7.21 3.34 0 5.704-2.008 6.008-4.965h-2.747c-.33 1.61-1.479 2.574-3.235 2.574-2.218 0-3.684-1.769-3.684-4.819 0-2.984 1.453-4.82 3.658-4.82 1.862 0 2.971 1.176 3.261 2.655h2.72zm6.001 9.348c1.822 0 3.578-.977 4.383-2.522h.066v2.284h2.734v-9.572c0-2.786-2.153-4.569-5.52-4.569-3.433 0-5.572 1.849-5.73 4.357h2.694c.25-1.24 1.28-2.033 2.931-2.033 1.743 0 2.786.924 2.786 2.469v1.07l-3.803.224c-3.301.185-5.163 1.677-5.163 4.106 0 2.496 1.902 4.186 4.622 4.186zm.792-2.258c-1.532 0-2.535-.792-2.535-2.007 0-1.188.964-1.94 2.667-2.06l3.42-.211v1.096c0 1.809-1.558 3.182-3.552 3.182zm9.051 2.02h2.852V49.81c0-1.968 1.135-3.196 2.971-3.196.554 0 1.056.067 1.28.159v-2.654c-.211-.04-.567-.106-.977-.106-1.637 0-2.878.964-3.34 2.588h-.066v-2.363h-2.72v13.89zm15.996-14.115c-2.007 0-3.605 1.017-4.424 2.615h-.052v-2.39h-2.76v18.485h2.852v-6.879h.066c.792 1.545 2.377 2.522 4.371 2.522 3.485 0 5.796-2.786 5.796-7.183s-2.324-7.17-5.849-7.17zm-.753 11.937c-2.192 0-3.644-1.875-3.644-4.767 0-2.865 1.465-4.767 3.644-4.767 2.258 0 3.671 1.862 3.671 4.767 0 2.918-1.413 4.767-3.671 4.767zm14.662 2.442c3.975 0 6.589-2.733 6.589-7.209 0-4.463-2.627-7.196-6.589-7.196-3.961 0-6.588 2.733-6.588 7.196 0 4.476 2.614 7.21 6.588 7.21zm0-2.35c-2.231 0-3.683-1.77-3.683-4.859 0-3.077 1.452-4.846 3.683-4.846 2.232 0 3.684 1.77 3.684 4.846 0 3.09-1.439 4.859-3.684 4.859zm14.65 2.35c3.974 0 6.588-2.733 6.588-7.209 0-4.463-2.627-7.196-6.588-7.196-3.961 0-6.589 2.733-6.589 7.196 0 4.476 2.614 7.21 6.589 7.21zm0-2.35c-2.232 0-3.684-1.77-3.684-4.859 0-3.077 1.452-4.846 3.684-4.846 2.231 0 3.684 1.77 3.684 4.846 0 3.09-1.44 4.859-3.684 4.859zm8.786 2.086h2.852V39.075h-2.852v19.053zm-81.108 27h2.852v-8.582c0-1.783 1.202-3.103 2.892-3.103 1.611 0 2.627 1.017 2.627 2.614v9.071h2.799v-8.675c0-1.756 1.176-3.01 2.866-3.01 1.69 0 2.654 1.03 2.654 2.826v8.86h2.865v-9.547c0-2.76-1.796-4.582-4.542-4.582-1.981 0-3.618 1.03-4.331 2.72h-.066c-.555-1.73-1.954-2.72-3.882-2.72-1.875 0-3.327 1.03-3.948 2.575h-.066v-2.337h-2.72v13.89zm26.269.238c1.822 0 3.578-.977 4.383-2.522h.066v2.284h2.733v-9.573c0-2.786-2.152-4.568-5.519-4.568-3.433 0-5.572 1.849-5.73 4.357h2.693c.251-1.24 1.281-2.033 2.932-2.033 1.743 0 2.786.924 2.786 2.469v1.07l-3.803.224c-3.301.185-5.163 1.677-5.163 4.106 0 2.496 1.902 4.186 4.622 4.186zm.792-2.258c-1.532 0-2.535-.792-2.535-2.007 0-1.188.964-1.94 2.667-2.06l3.42-.211v1.096c0 1.809-1.558 3.182-3.552 3.182zm14.266 2.258c2.02 0 3.605-1.017 4.423-2.601h.053v2.363h2.773V66.075h-2.865v7.474h-.053c-.779-1.532-2.364-2.536-4.357-2.536-3.486 0-5.81 2.786-5.81 7.17s2.324 7.183 5.836 7.183zm.753-11.95c2.192 0 3.657 1.889 3.657 4.767 0 2.905-1.465 4.767-3.657 4.767-2.258 0-3.671-1.836-3.671-4.767 0-2.918 1.413-4.767 3.671-4.767zm18.518 7.632c-.383 1.215-1.585 2.034-3.209 2.034-2.284 0-3.737-1.598-3.737-4.014v-.172h9.811v-.977c0-4.212-2.403-6.932-6.259-6.932-3.921 0-6.43 2.905-6.43 7.262 0 4.384 2.469 7.143 6.549 7.143 3.182 0 5.585-1.809 5.981-4.344h-2.706zm-3.394-7.764c1.994 0 3.341 1.492 3.407 3.618h-6.945c.145-2.1 1.544-3.618 3.538-3.618zm22.948 7.764c-.383 1.215-1.585 2.034-3.209 2.034-2.284 0-3.737-1.598-3.737-4.014v-.172h9.811v-.977c0-4.212-2.403-6.932-6.259-6.932-3.921 0-6.43 2.905-6.43 7.262 0 4.384 2.469 7.143 6.549 7.143 3.182 0 5.585-1.809 5.981-4.344h-2.706zm-3.394-7.764c1.994 0 3.341 1.492 3.407 3.618h-6.945c.145-2.1 1.544-3.618 3.538-3.618zm12.431 12.082c1.822 0 3.578-.977 4.384-2.522h.066v2.284h2.733v-9.573c0-2.786-2.152-4.568-5.519-4.568-3.433 0-5.572 1.849-5.731 4.357h2.694c.251-1.24 1.281-2.033 2.931-2.033 1.743 0 2.786.924 2.786 2.469v1.07l-3.803.224c-3.301.185-5.162 1.677-5.162 4.106 0 2.496 1.901 4.186 4.621 4.186zm.792-2.258c-1.531 0-2.535-.792-2.535-2.007 0-1.188.964-1.94 2.667-2.06l3.42-.211v1.096c0 1.809-1.558 3.182-3.552 3.182zm8.8-7.935c0 2.02 1.307 3.287 3.948 3.895l2.258.528c1.518.343 2.033.871 2.033 1.77 0 1.135-1.056 1.848-2.772 1.848-1.743 0-2.734-.713-2.998-2.166h-2.825c.264 2.641 2.35 4.344 5.823 4.344 3.274 0 5.638-1.743 5.638-4.278 0-2.007-1.083-3.116-3.922-3.776l-2.258-.515c-1.505-.343-2.139-.937-2.139-1.809 0-1.109 1.03-1.862 2.575-1.862 1.598 0 2.588.845 2.746 2.192h2.681c-.093-2.561-2.192-4.357-5.427-4.357-3.195 0-5.361 1.703-5.361 4.186zm14.57 15.131c2.879 0 4.252-1.083 5.44-4.45l5.202-14.616h-3.01l-3.512 11.302h-.053l-3.512-11.302h-3.09l5.017 13.903c0 .014-.25.832-.25.859-.436 1.426-1.149 1.98-2.47 1.98-.237 0-.713 0-.924-.053v2.311c.211.04.924.066 1.162.066z"/>
        </g>
    </g>
    <g filter="url(#filter0_bii)">
        <path fill="#fff" fill-opacity=".03" d="M40.661 41.464C29.955 22.921 47.013.691 67.695 6.233l83.242 22.305c32.765 8.779 52.209 42.457 43.43 75.222l-22.305 83.242c-5.542 20.682-33.322 24.339-44.028 5.796L40.661 41.464z"/>
    </g>
    <g filter="url(#filter1_bi)">
        <path fill="#000" fill-opacity=".02" d="M74.317 50.109c-7.602-13.168 4.51-28.953 19.197-25.018l59.108 15.839c23.266 6.234 37.073 30.148 30.839 53.414l-15.838 59.109c-3.935 14.686-23.662 17.283-31.264 4.116L74.317 50.109z"/>
    </g>
    <defs>
        <clipPath id="clip0">
            <path fill="#fff" d="M0 0H145.9V61.363H0z" transform="translate(105.1 35.251)"/>
        </clipPath>
        <clipPath id="clip1">
            <path fill="#fff" d="M0 0H62.342V47.981H0z" transform="translate(105.1 45.37)"/>
        </clipPath>
        <filter id="filter0_bii" width="218.723" height="218.723" x="-4.23" y="-4.23" color-interpolation-filters="sRGB" filterUnits="userSpaceOnUse">
            <feFlood flood-opacity="0" result="BackgroundImageFix"/>
            <feGaussianBlur in="BackgroundImage" stdDeviation="2.115"/>
            <feComposite in2="SourceAlpha" operator="in" result="effect1_backgroundBlur"/>
            <feBlend in="SourceGraphic" in2="effect1_backgroundBlur" result="shape"/>
            <feColorMatrix in="SourceAlpha" result="hardAlpha" values="0 0 0 0 0 0 0 0 0 0 0 0 0 0 0 0 0 0 127 0"/>
            <feOffset dx="2.417"/>
            <feGaussianBlur stdDeviation="1.208"/>
            <feComposite in2="hardAlpha" k2="-1" k3="1" operator="arithmetic"/>
            <feColorMatrix values="0 0 0 0 1 0 0 0 0 1 0 0 0 0 1 0 0 0 0.16 0"/>
            <feBlend in2="shape" result="effect2_innerShadow"/>
            <feColorMatrix in="SourceAlpha" result="hardAlpha" values="0 0 0 0 0 0 0 0 0 0 0 0 0 0 0 0 0 0 127 0"/>
            <feOffset dy="2.417"/>
            <feGaussianBlur stdDeviation="1.208"/>
            <feComposite in2="hardAlpha" k2="-1" k3="1" operator="arithmetic"/>
            <feColorMatrix values="0 0 0 0 1 0 0 0 0 1 0 0 0 0 1 0 0 0 0.16 0"/>
            <feBlend in2="effect2_innerShadow" result="effect3_innerShadow"/>
        </filter>
        <filter id="filter1_bi" width="157.764" height="157.764" x="41.215" y="16.436" color-interpolation-filters="sRGB" filterUnits="userSpaceOnUse">
            <feFlood flood-opacity="0" result="BackgroundImageFix"/>
            <feGaussianBlur in="BackgroundImage" stdDeviation="2.115"/>
            <feComposite in2="SourceAlpha" operator="in" result="effect1_backgroundBlur"/>
            <feBlend in="SourceGraphic" in2="effect1_backgroundBlur" result="shape"/>
            <feColorMatrix in="SourceAlpha" result="hardAlpha" values="0 0 0 0 0 0 0 0 0 0 0 0 0 0 0 0 0 0 127 0"/>
            <feOffset/>
            <feGaussianBlur stdDeviation="22.659"/>
            <feComposite in2="hardAlpha" k2="-1" k3="1" operator="arithmetic"/>
            <feColorMatrix values="0 0 0 0 0.980392 0 0 0 0 0.211783 0 0 0 0 0 0 0 0 0.24 0"/>
            <feBlend in2="shape" result="effect2_innerShadow"/>
        </filter>
    </defs>
</svg>
