<svg xmlns="http://www.w3.org/2000/svg" width="40" height="40" fill="none" viewBox="0 0 40 40">
    <rect width="39" height="39" x=".5" y=".5" fill="#fff" stroke="#000" rx="7.5"/>
    <path fill="#000" d="M26.4 19.763c.025-1.853 1.025-3.606 2.613-4.576-1.002-1.422-2.679-2.324-4.424-2.378-1.861-.194-3.665 1.107-4.614 1.107-.967 0-2.427-1.088-4-1.056-2.05.066-3.96 1.225-4.957 3.007-2.144 3.69-.545 9.114 1.509 12.097 1.027 1.46 2.228 3.092 3.799 3.035 1.537-.064 2.111-.975 3.967-.975 1.838 0 2.377.974 3.98.938 1.65-.027 2.69-1.468 3.68-2.942.739-1.04 1.306-2.191 1.683-3.408-1.938-.816-3.233-2.756-3.235-4.849zM23.373 10.847c.9-1.074 1.343-2.454 1.235-3.847-1.374.144-2.643.797-3.555 1.83-.891 1.008-1.355 2.364-1.267 3.704 1.374.014 2.726-.622 3.587-1.687z"/>
</svg>
