<svg xmlns="http://www.w3.org/2000/svg" width="855" height="224" fill="none" viewBox="0 0 855 224">
    <path stroke="#FF4904" stroke-linecap="round" stroke-linejoin="round" stroke-width="2" d="M146.382 7.1v49.813M126.05 17.265c9.774-8.942 21.739-10.877 34.338-13.215C168.17 2.606 176.048 1 183.995 1M164.68 24.382c.823 6.891.008 14.332 1.243 21.122.659 3.626 1.807 6.722 1.807 10.392M167.73 47.763c2.666-2.666 6.057-5.02 8.133-8.132M174.846 23.365c0 10.86-1.917 24.631 3.05 34.564M189.079 16.249c0 11.014-1.153 22.7 1.016 33.547M188.062 21.332c6.252-2.605 12.434-5.2 18.299-8.133M188.062 39.63c7.24 0 14.282-1.016 21.348-1.016M188.062 48.78c11.898 2.203 23.328 7.116 35.581 7.116M121.984 54.88c-17.032 0-34.801-1.5-51.733.225C56.47 56.51 40.08 67.068 31.11 77.132 20.909 88.58 10.948 101.674 7.675 116.948c-2.694 12.57-6.9 25.165-6.665 38.122.16 8.763 7.677 8.585 14.176 8.585 7.812 0 9.526-9.363 15.306-13.216"/>
    <path stroke="#FF4904" stroke-linecap="round" stroke-linejoin="round" stroke-width="2" d="M28.457 141.29c.313-.076 10.14-2.636 10.166-2.598 1.9 2.85 0 14.075 0 17.056v37.388"/>
    <path fill="#000" d="M60.399 153.879v-39.68h7.2c0 2.24-1.28 5.307-3.84 9.2h4.08c.8-2.667 2.32-5.04 4.56-7.12 2.24-2.133 4.96-3.2 8.16-3.2 4.587 0 8.026 1.307 10.32 3.92 2.346 2.56 3.52 6.213 3.52 10.96v25.92h-7.52v-24.24c0-6.667-2.773-10-8.32-10-3.2 0-5.6.96-7.2 2.88-1.44 1.707-2.373 3.653-2.8 5.84-.427 2.187-.64 4.987-.64 8.4v17.12h-7.52zM104 134.199c0-6.347 1.68-11.44 5.04-15.28 3.36-3.893 7.68-5.84 12.96-5.84 5.28 0 9.547 1.84 12.8 5.52 3.254 3.68 4.88 8.373 4.88 14.08 0 1.013-.08 2.107-.24 3.28h-27.92c.16 4.267 1.227 7.467 3.2 9.6 2.027 2.08 4.614 3.12 7.76 3.12 4.747 0 8.214-2.533 10.4-7.6l6.88 2.48c-1.386 3.68-3.6 6.507-6.64 8.48-2.986 1.973-6.586 2.96-10.8 2.96-5.6 0-10.053-1.813-13.36-5.44-3.306-3.68-4.96-8.8-4.96-15.36zm7.68-4.24h20.16c-.053-3.36-1.013-6-2.88-7.92-1.866-1.973-4.186-2.96-6.96-2.96-2.72 0-5.04.987-6.96 2.96-1.92 1.973-3.04 4.613-3.36 7.92zm46.567 23.92l-12.96-39.68h7.84l5.6 18.48c.854 2.773 1.387 5.12 1.6 7.04.32 2.667.507 5.173.56 7.52h3.28c.32-5.387 1.12-10.107 2.4-14.16l5.76-18.88h8.8l6.24 20.64c1.014 3.307 1.627 7.44 1.84 12.4h3.36c.054-5.333.8-10.267 2.24-14.8l5.68-18.24h7.92l-13.36 39.68h-8.88l-5.6-18.4c-1.44-4.8-2.186-9.84-2.24-15.12h-3.52c-.053 5.387-.8 10.4-2.24 15.04l-5.76 18.48h-8.56zM257.576 130.117c.041 1.171-.08 2.205-.361 3.1-.282.87-.608 1.611-.978 2.223-.369.613-.718 1.081-1.045 1.405l-.49.525-.379.326-.552-.137c-1.475-.444-2.776-.763-3.903-.958-1.102-.196-2.199-.275-3.292-.237-.807.028-1.598.134-2.373.318l.251.46.168.346-.145.317c-.87 2.689-1.257 5.425-1.16 8.21.047 1.327.197 2.638.45 3.932.254 1.294.651 2.596 1.192 3.906l.171.424-.145.318c-.024.053-.159.292-.405.718-.247.399-.661.856-1.242 1.372-.582.489-1.387.947-2.414 1.374-1.002.426-2.27.666-3.806.719-1.535.054-2.818-.11-3.847-.491-1.004-.382-1.814-.809-2.429-1.283-.591-.501-1.011-.955-1.26-1.363-.249-.434-.375-.678-.377-.73l-.167-.306.141-.435c.549-1.453.94-2.939 1.173-4.458.234-1.52.324-3.06.269-4.622-.038-1.093-.142-2.197-.311-3.311-.143-1.116-.379-2.267-.707-3.454l-.018-.508c.268-1.286.472-2.544.611-3.773.165-1.257.225-2.51.182-3.759-.049-1.379-.213-2.728-.494-4.048-.28-1.319-.638-2.622-1.074-3.91l-.092-.387.145-.318c.524-1.426.891-2.846 1.102-4.26.237-1.441.33-2.865.281-4.27-.04-1.145-.17-2.274-.392-3.387-.196-1.14-.496-2.289-.902-3.447l-.174-.502.299-.402.452-.484c.276-.323.694-.663 1.254-1.021.586-.386 1.317-.724 2.193-1.015.875-.317 1.924-.497 3.147-.54 1.405-.049 2.609.104 3.612.46 1.003.356 1.811.745 2.425 1.166.752-.104 1.542-.249 2.369-.434.827-.185 1.653-.436 2.475-.751l.307-.167.432.063c1.263.347 2.354.608 3.272.785.943.149 1.831.209 2.664.18.911-.032 1.857-.182 2.838-.451.98-.268 2.126-.66 3.437-1.175l.462-.212.439.259c.027.025.201.162.522.411.322.25.674.641 1.058 1.175.382.508.744 1.173 1.086 1.995.366.795.609 1.776.728 2.945l.024.703c.037 1.041-.061 1.969-.293 2.785-.232.816-.508 1.516-.826 2.1-.293.558-.578.985-.854 1.281-.25.295-.388.457-.413.483l-.38.326-.591-.135c-1.259-.243-2.333-.414-3.223-.513-.89-.125-1.713-.175-2.467-.148-.885.03-1.766.165-2.644.405-.853.212-1.884.534-3.093.967l-.544.098c-1.1-.17-2.16-.29-3.178-.358-.993-.07-1.997-.087-3.012-.052.104.726.233 1.451.389 2.176.18.697.401 1.406.66 2.126l.019.547c-.139.474-.253.947-.341 1.419-.063.445-.124.916-.185 1.413.762.182 1.47.301 2.123.356.679.055 1.383.069 2.112.044.963-.034 1.936-.146 2.92-.337.983-.216 2.053-.527 3.212-.933l.463-.172.401.298.485.453c.321.249.661.654 1.019 1.215.384.534.721 1.225 1.011 2.075.315.823.493 1.807.533 2.952zm-15.73-23.997c-.188-.15-.442-.336-.762-.56-.321-.223-.719-.43-1.195-.622-.475-.192-1.028-.342-1.657-.451-.604-.135-1.283-.189-2.038-.163-.729.026-1.377.113-1.945.264-.569.124-1.072.284-1.508.482-.41.197-.755.391-1.035.583-.28.193-.495.37-.646.531.354 1.16.628 2.297.823 3.411.195 1.114.313 2.256.354 3.427.087 2.473-.231 4.933-.954 7.382.644-.231 1.264-.383 1.861-.456.596-.073 1.155-.119 1.675-.137 1.406-.049 2.463.005 3.172.163.708.132 1.209.297 1.503.495.346.222.511.477.495.764.009.234-.076.433-.252.595-.152.136-.332.207-.54.215-.052.001-.131-.022-.237-.07-.081-.076-.253-.148-.516-.217s-.629-.121-1.1-.157c-.471-.062-1.11-.078-1.917-.05-.65.023-1.351.112-2.101.269-.75.156-1.536.405-2.358.747.408 1.236.725 2.476.951 3.719.251 1.242.401 2.526.447 3.854.038 1.093-.001 2.214-.117 3.365-.091 1.124-.247 2.25-.468 3.378.414-.067.803-.119 1.167-.158.363-.039.753-.066 1.169-.08.599-.021 1.29-.006 2.074.045.782.025 1.527.09 2.234.195.708.106 1.299.255 1.775.446.501.165.756.391.766.677.01.287-.1.499-.33.637-.23.112-.463.173-.697.181-.604-.135-1.298-.241-2.082-.318-.759-.078-1.554-.102-2.387-.073-.599.021-1.235.082-1.909.184-.649.074-1.271.161-1.867.26.298 1.084.505 2.145.619 3.184.141 1.037.228 2.05.263 3.039.111 3.175-.341 6.279-1.356 9.311.111.179.288.42.534.724.27.277.631.551 1.084.822.477.244 1.058.458 1.742.643.683.158 1.506.221 2.469.187.963-.033 1.792-.154 2.489-.36.696-.207 1.274-.436 1.735-.686.485-.278.853-.551 1.104-.821.277-.296.477-.537.601-.724-.491-1.364-.877-2.706-1.157-4.025-.281-1.319-.445-2.655-.492-4.008-.051-1.458.016-2.893.201-4.307.212-1.414.552-2.846 1.023-4.296-.489-1.312-.86-2.628-1.115-3.948-.255-1.32-.406-2.683-.455-4.088-.047-1.327-.003-2.684.131-4.07.159-1.412.422-2.842.788-4.288-.725-2.111-1.127-4.286-1.205-6.524-.099-2.837.284-5.677 1.149-8.522zm2.21-.507l-.216.516c-.419 1.448-.734 2.879-.945 4.293-.186 1.388-.256 2.745-.209 4.072l.002.078c1.015-.035 2.033-.005 3.052.089 1.046.094 2.118.2 3.216.318 1.286-.488 2.381-.852 3.285-1.092.929-.241 1.875-.378 2.838-.412.807-.028 1.669.02 2.585.145.917.124 1.978.308 3.185.553.125-.161.274-.388.446-.68.198-.294.368-.651.51-1.073.167-.423.307-.897.419-1.422.111-.551.155-1.165.131-1.842-.025-.728-.127-1.389-.304-1.983-.177-.593-.39-1.106-.64-1.541-.224-.435-.457-.791-.702-1.07-.245-.304-.448-.531-.61-.682-1.363.517-2.509.909-3.437 1.176-.904.24-1.798.375-2.683.406-.677.024-1.408-.016-2.193-.119-.786-.103-1.69-.254-2.713-.452.312.718.545 1.427.7 2.125.154.698.242 1.346.263 1.945.041 1.171-.006 2.059-.142 2.663-.11.577-.252.986-.426 1.226-.174.241-.339.364-.495.37l-.234.008c-.208.007-.393-.065-.555-.215-.162-.151-.246-.331-.253-.539-.001-.026.01-.078.033-.157.05-.08.097-.212.143-.396.046-.184.076-.446.09-.785.04-.34.05-.81.029-1.408-.024-.677-.129-1.442-.315-2.295-.186-.854-.542-1.727-1.069-2.621-.494.017-.999.1-1.515.249-.517.122-1.021.257-1.511.404l.24.148zm2.378 28.919c1.145-.04 2.281.025 3.407.194 1.153.168 2.465.448 3.938.839.177-.162.377-.404.6-.724.224-.321.432-.706.624-1.155.193-.45.358-.964.494-1.542.136-.578.191-1.231.166-1.96-.025-.703-.112-1.325-.261-1.867-.149-.542-.321-1.005-.517-1.389-.197-.41-.404-.742-.621-.995-.218-.279-.395-.494-.531-.646-1.159.38-2.205.651-3.138.813-.906.162-1.802.259-2.686.29-.807.028-1.602.017-2.386-.034-.784-.077-1.623-.217-2.516-.421-.057.602-.101 1.216-.131 1.842-.005.6.002 1.186.022 1.758.032.911.102 1.808.211 2.69.135.881.322 1.76.561 2.638.932-.189 1.853-.299 2.764-.331zm36.96-29.55l-.218.477c-.669 1.717-1.145 3.401-1.426 5.052-.256 1.625-.356 3.244-.299 4.858.054 1.561.265 3.13.633 4.707l.019.546c-.538 1.739-.938 3.343-1.2 4.811-.261 1.468-.367 2.905-.318 4.311.031.91.128 1.819.29 2.725.162.907.404 1.849.724 2.828l.022.625c-.674 1.587-1.158 3.024-1.452 4.311-.268 1.286-.378 2.593-.332 3.92.826-.237 1.624-.512 2.395-.826.769-.339 1.655-.709 2.658-1.109l.619-.178c.653.055 1.268.112 1.843.17.6.031 1.187.037 1.759.017 1.744-.061 3.415-.354 5.012-.879-.157-.75-.327-1.513-.51-2.288-.184-.801-.408-1.601-.67-2.4l-.134-.464c.175-.97.285-1.925.33-2.865.071-.967.089-1.944.054-2.933-.059-1.692-.273-3.339-.641-4.942-.37-1.629-.881-3.213-1.534-4.754l-.022-.625c.348-1.21.58-2.404.696-3.581.141-1.177.191-2.365.149-3.562-.048-1.379-.226-2.741-.534-4.085-.281-1.345-.707-2.712-1.276-4.099l-.251-.46.334-.52c.025-.027.175-.214.449-.563.274-.348.717-.728 1.328-1.141.611-.412 1.393-.791 2.345-1.137.977-.373 2.168-.584 3.574-.633 1.093-.038 2.047.059 2.863.291.842.231 1.555.493 2.138.785.584.293 1.023.577 1.32.853.295.251.456.388.483.413l.404.377-.135.591c-.544 2.338-.777 4.613-.7 6.826.094 2.706.667 5.292 1.717 7.757l.02.586c-.419 2.177-.593 4.281-.522 6.311.115 3.279.862 6.406 2.243 9.38l.167.307-.067.315c-.546 2.286-.781 4.509-.705 6.669.056 1.614.268 3.196.634 4.747.393 1.55.955 3.093 1.687 4.631l.167.307-.142.435c-.025.027-.159.279-.403.757-.219.45-.644.96-1.276 1.53-.605.568-1.447 1.092-2.524 1.573-1.078.481-2.476.751-4.193.811-1.067.037-1.995-.035-2.783-.216-.762-.181-1.422-.419-1.979-.712-.558-.293-1.011-.603-1.362-.93-.324-.327-.581-.618-.773-.872-.797.289-1.581.616-2.35.981-.744.339-1.511.744-2.303 1.214l-.465.095c-1.328.046-2.602.116-3.823.211-1.197.068-2.364.213-3.503.435-1.114.195-2.224.495-3.33.898-1.079.429-2.167 1.001-3.262 1.717l-.304.245-.394-.065c-.158-.072-.449-.179-.871-.321-.395-.116-.86-.374-1.395-.772-.508-.373-1.048-.928-1.621-1.663-.574-.762-1.105-1.799-1.594-3.111-.741-.312-1.352-.669-1.835-1.069-.484-.426-.876-.829-1.176-1.21-.274-.381-.481-.699-.62-.955-.114-.283-.172-.45-.174-.502l-.13-.387.184-.319c.774-1.694 1.332-3.251 1.674-4.67.366-1.446.52-3.015.461-4.707-.024-.676-.087-1.378-.191-2.104-.077-.727-.196-1.504-.355-2.333l-.016-.468c.492-1.581.856-3.079 1.093-4.494.238-1.415.332-2.826.283-4.231-.032-.911-.143-1.832-.331-2.764-.163-.932-.393-1.914-.69-2.946l-.089-.31.144-.357c.75-1.667 1.291-3.328 1.624-4.981.359-1.654.509-3.353.448-5.097-.059-1.692-.342-3.441-.848-5.247l-.175-.541.418-.328.415-.444c.251-.269.632-.543 1.144-.822.51-.304 1.152-.587 1.924-.849.799-.262 1.732-.412 2.799-.449 1.353-.047 2.544.107 3.573.461 1.028.329 1.875.717 2.542 1.162.692.419 1.201.818 1.527 1.198.352.378.541.58.568.605l.329.458zm-2.217.312c-.189-.176-.457-.388-.804-.636-.348-.275-.787-.533-1.317-.775-.529-.242-1.148-.429-1.856-.561-.71-.157-1.52-.22-2.43-.189-1.172.041-2.129.231-2.873.57-.718.338-1.229.616-1.534.835.24.904.414 1.784.522 2.64.108.856.178 1.739.21 2.65.052 1.51-.038 3.011-.273 4.505-.235 1.467-.627 2.94-1.175 4.418.854-.186 1.697-.293 2.53-.322 1.613-.057 2.841.018 3.682.223.841.205 1.435.432 1.782.68.374.248.564.476.571.684.033.181.048.246.046.194.008.234-.076.432-.253.595-.177.136-.344.207-.5.213-.078.002-.171-.034-.278-.108-.107-.1-.319-.197-.635-.29-.291-.121-.724-.223-1.301-.307-.576-.084-1.345-.109-2.308-.076-.573.02-1.17.093-1.791.219-.622.1-1.267.279-1.935.537.24.904.414 1.783.522 2.64.108.856.176 1.7.206 2.533.045 1.301-.014 2.593-.178 3.876-.164 1.256-.442 2.621-.834 4.094l1.21-.042c.677-.024 1.472 0 2.387.073.915.072 1.778.185 2.592.339.812.128 1.496.313 2.051.554.581.214.877.464.887.751.01.286-.1.498-.33.636-.204.138-.384.209-.54.215-.052.002-.091-.01-.118-.035-.027-.025-.067-.037-.119-.035-.817-.258-1.774-.446-2.873-.564-1.098-.118-2.233-.157-3.404-.116l-.976.034c-.313.011-.624.048-.934.111.207 1.452.33 2.737.369 3.857.031.884.008 1.719-.069 2.503-.077.785-.206 1.571-.387 2.359-.156.761-.376 1.538-.661 2.329-.259.791-.568 1.636-.928 2.534.085.206.264.473.536.802.272.33.661.642 1.166.937.532.294 1.192.544 1.981.751.815.207 1.808.289 2.979.248.807-.028 1.494-.13 2.061-.306.593-.177 1.081-.377 1.464-.599.41-.222.727-.455.953-.697.252-.244.441-.433.567-.567-.325-1.083-.568-2.078-.73-2.985-.163-.932-.26-1.854-.292-2.764-.05-1.432.083-2.844.4-4.236.315-1.418.807-2.985 1.477-4.703-.323-1.031-.566-2.025-.73-2.984-.163-.958-.262-1.919-.296-2.882-.052-1.483.04-2.972.274-4.465.234-1.52.646-3.15 1.237-4.89-.238-.826-.41-1.653-.517-2.484-.108-.856-.177-1.7-.206-2.533-.112-3.227.462-6.557 1.723-9.988zm23.461 39.44c.093.413.172.814.237 1.203.066.388.105.765.118 1.129.029.833-.036 1.578-.195 2.235-.134.656-.297 1.222-.488 1.698-.193.45-.376.808-.549 1.074-.148.24-.235.373-.26.4l-.416.406-.471-.062c-.522-.034-1.031-.055-1.526-.064-.47-.01-.926-.007-1.368.009-.651.022-1.274.083-1.87.182-.597.073-1.193.159-1.789.258.377.352.937.697 1.678 1.036.74.313 1.722.448 2.946.405 1.171-.041 2.156-.179 2.956-.416.798-.262 1.452-.559 1.962-.889.51-.331.902-.657 1.177-.979.275-.349.474-.629.596-.842-.707-1.591-1.258-3.2-1.653-4.828-.397-1.654-.624-3.301-.681-4.94-.077-2.212.157-4.461.702-6.748-.705-1.538-1.256-3.135-1.652-4.789-.397-1.653-.625-3.339-.685-5.057-.072-2.056.088-4.211.478-6.466-1.03-2.622-1.594-5.351-1.693-8.188-.038-1.093-.011-2.188.081-3.286.117-1.124.298-2.277.543-3.458-.161-.151-.389-.313-.681-.485-.293-.172-.651-.342-1.073-.51-.423-.167-.91-.294-1.46-.379-.551-.111-1.152-.155-1.802-.132-.833.029-1.572.133-2.217.312-.62.178-1.173.38-1.66.605-.487.226-.882.474-1.186.745-.304.245-.531.449-.682.61 1.062 2.803 1.641 5.584 1.738 8.343.033.963.015 1.928-.056 2.894-.071.941-.207 1.897-.408 2.868.745-.313 1.467-.533 2.166-.662.724-.156 1.412-.245 2.062-.267 1.25-.044 2.176-.011 2.779.098.629.108 1.064.249 1.305.423.265.147.401.299.406.455l.011.313c.008.208-.077.393-.254.556-.177.162-.369.247-.577.254-.052.002-.105-.009-.158-.033-.028-.051-.134-.1-.318-.145-.184-.046-.458-.076-.824-.089-.366-.039-.874-.048-1.525-.025-.728.026-1.546.132-2.451.32s-1.831.546-2.777 1.074c1.228 3.058 1.898 6.227 2.013 9.506.026.755.028 1.537.004 2.345.001.782-.05 1.552-.154 2.312.646-.153 1.293-.267 1.942-.342.648-.101 1.297-.162 1.948-.185.495-.017 1.042-.023 1.641-.018.6.005 1.161.037 1.684.097.549.059.996.174 1.341.344.37.144.56.372.571.684.007.208-.052.38-.177.514-.126.135-.292.232-.498.291-.443.016-.926-.02-1.45-.105-.524-.086-1.086-.119-1.684-.098-.833.029-1.716.112-2.649.249-.908.136-1.774.322-2.6.56.177.593.329 1.2.455 1.821.152.62.277 1.215.375 1.785.565-.228 1.13-.483 1.693-.763.589-.307 1.176-.653 1.762-1.039l.42-.288.474.14c.026.025.213.136.558.332.372.196.788.533 1.247 1.012.485.452.962 1.061 1.432 1.826.469.739.841 1.691 1.116 2.854zm-23.646 5.633l-.142.396c-.025.053-.161.266-.408.639-.248.348-.652.74-1.21 1.176-.533.41-1.262.8-2.187 1.171-.899.37-2.012.578-3.339.625-.911.031-1.773-.017-2.585-.145.255.591.533 1.089.834 1.496.327.405.638.733.933.983.296.251.563.437.801.559.266.147.491.243.675.289 1.148-.692 2.289-1.24 3.421-1.644 1.132-.431 2.28-.757 3.445-.98 1.164-.249 2.356-.421 3.578-.516 1.247-.096 2.56-.168 3.94-.216 1.813-1.053 3.57-1.844 5.272-2.373 1.727-.529 3.632-.83 5.714-.903l1.21-.042c.39-.014.795-.002 1.213.036.196-.346.414-.836.652-1.469.239-.634.342-1.406.31-2.317-.033-.963-.194-1.818-.48-2.563-.261-.747-.569-1.374-.926-1.883-.357-.535-.711-.952-1.06-1.253-.324-.327-.579-.553-.766-.677-.92.528-1.816.989-2.688 1.384-.846.394-1.694.737-2.544 1.027-.85.264-1.716.477-2.596.638-.855.134-1.764.218-2.727.251l-1.054.037c-.313.011-.652-.003-1.018-.042.637 1.072 1.077 2.112 1.32 3.119.243.982.378 1.85.404 2.605.024.677.016 1.198-.023 1.564-.04.367-.109.63-.207.789-.073.159-.174.254-.303.285l-.352.012c-.286.01-.496-.048-.631-.174-.109-.126-.167-.293-.174-.502l-.003-.078c.026-.027.037-.066.035-.118l-.009-.273c.02-.158.026-.379.016-.666-.024-.676-.186-1.583-.486-2.719-.275-1.163-.877-2.353-1.806-3.572-.1.108-.215.164-.345.169-.873.395-1.695.71-2.469.946-.747.235-1.496.443-2.245.626.075.648.175 1.296.302 1.943.153.646.359 1.33.619 2.05l.089.31zm73.782-48.503l-.14.474c-.417 1.474-.745 2.905-.983 4.295-.212 1.388-.294 2.772-.246 4.151.036 1.041.151 2.08.343 3.115.218 1.009.501 2.041.851 3.097l.019.547c-.71 2.787-1.02 5.495-.928 8.123.047 1.354.197 2.664.45 3.932.253 1.268.622 2.519 1.108 3.753l.023.664c-.473 1.371-.816 2.751-1.028 4.14-.186 1.387-.255 2.771-.207 4.15.092 2.629.639 5.215 1.639 7.76l.172.424-.146.318c-.024.053-.159.292-.404.717-.247.4-.662.844-1.244 1.334-.582.489-1.374.947-2.375 1.372-1.002.4-2.258.627-3.768.679-1.249.044-2.32-.036-3.213-.239-.894-.23-1.648-.542-2.261-.938l-.39.014c-.703.025-1.33-.019-1.881-.13-.552-.137-1.013-.277-1.383-.42-.37-.17-.663-.329-.876-.478-.189-.176-.297-.289-.325-.34l-.32-.224-.014-.39c-.223-2.65-.858-5.169-1.905-7.555-1.048-2.387-2.537-4.733-4.467-7.036l-.17-.385c-.374-1.759-.875-3.409-1.502-4.951-.601-1.542-1.331-3.028-2.188-4.457.095 1.221.253 2.401.475 3.54.248 1.138.6 2.259 1.056 3.363l.168.346-.145.318c-.448 1.345-.766 2.698-.953 4.059-.188 1.336-.258 2.693-.209 4.073.047 1.353.198 2.69.452 4.01.254 1.294.651 2.596 1.192 3.906l.171.424-.145.317c-.024.053-.159.293-.405.718-.247.4-.661.844-1.243 1.333-.582.49-1.387.948-2.415 1.375-1.002.399-2.271.626-3.806.68-1.536.053-2.818-.097-3.847-.452-1.003-.382-1.813-.81-2.429-1.283-.59-.501-1.01-.955-1.259-1.364-.249-.408-.374-.638-.376-.69l-.17-.385.144-.357c.549-1.452.94-2.938 1.174-4.457.233-1.52.322-3.087.265-4.7-.038-1.093-.141-2.184-.309-3.273-.144-1.115-.379-2.253-.706-3.415l-.016-.468c.267-1.312.469-2.596.608-3.852.164-1.282.225-2.522.183-3.719-.049-1.406-.214-2.768-.495-4.087-.28-1.319-.639-2.636-1.076-3.949l-.089-.31.145-.318c1.02-2.902 1.48-5.771 1.381-8.608-.04-1.145-.171-2.261-.391-3.348-.195-1.113-.495-2.249-.901-3.408l-.174-.502.299-.401.452-.485c.276-.322.694-.662 1.254-1.021.586-.385 1.317-.723 2.193-1.014.875-.318 1.924-.498 3.147-.54 1.171-.041 2.178.067 3.021.324.868.23 1.608.517 2.219.861l.625-.022c1.093-.038 1.969.061 2.629.299.659.212 1.015.342 1.069.393l.516.216.094.466c.734 5.342 2.752 9.78 6.054 13.312l.243.226.008.235c.825 4.244 2.294 7.88 4.407 10.907l-.003-.078c-.049-1.405-.201-2.768-.456-4.088-.254-1.32-.601-2.663-1.039-4.029l-.022-.624c1.019-2.902 1.477-5.824 1.375-8.765-.079-2.238-.481-4.439-1.208-6.602l-.174-.502.299-.401.452-.485c.275-.323.693-.663 1.254-1.021.586-.386 1.317-.724 2.192-1.015.875-.317 1.924-.497 3.148-.54 1.223-.042 2.296.09 3.218.396.922.28 1.702.605 2.341.974.638.368 1.119.716 1.443 1.044.324.327.5.503.527.528l.327.419zm-28.836 1.398c-.188-.15-.442-.337-.762-.56-.321-.223-.719-.431-1.194-.623-.476-.192-1.029-.342-1.658-.45-.604-.135-1.283-.19-2.038-.163-.729.025-1.377.113-1.945.263-.569.124-1.072.285-1.508.483-.41.196-.755.391-1.035.583-.28.192-.495.369-.646.531.354 1.16.628 2.297.823 3.411.195 1.113.313 2.256.354 3.427.042 1.197-.02 2.411-.185 3.641-.14 1.23-.397 2.451-.771 3.662.593-.177 1.174-.314 1.744-.412.596-.099 1.154-.158 1.675-.176 1.431-.05 2.514.003 3.249.16.736.157 1.25.334 1.543.532.348.249.514.517.498.804.008.234-.077.432-.253.595-.152.136-.332.207-.54.214-.052.002-.131-.021-.237-.07-.081-.075-.253-.147-.516-.216s-.629-.121-1.1-.157c-.471-.062-1.11-.079-1.917-.05-.65.022-1.351.112-2.101.268-.75.157-1.536.406-2.358.747.408 1.237.725 2.476.951 3.719.252 1.242.401 2.527.447 3.854.038 1.093-.001 2.215-.117 3.366-.091 1.123-.247 2.249-.468 3.377.414-.066.829-.12 1.245-.16.415-.041.831-.068 1.248-.083.598-.021 1.276-.005 2.034.046.782.025 1.514.091 2.195.197.682.107 1.26.256 1.736.448.475.166.717.392.727.678.007.208-.077.393-.254.556-.151.162-.33.246-.538.253-.599.021-1.305-.045-2.118-.199-.813-.154-1.675-.216-2.586-.184-.599.021-1.235.07-1.91.145-.65.049-1.272.149-1.866.3.298 1.084.505 2.145.619 3.183.141 1.038.228 2.051.263 3.04.056 1.613-.032 3.206-.263 4.778-.233 1.545-.597 3.069-1.091 4.572.11.178.287.407.532.685.27.277.631.551 1.084.822.477.244 1.058.458 1.742.642.683.159 1.506.221 2.469.188.963-.034 1.792-.154 2.489-.361.695-.232 1.273-.474 1.733-.725.486-.277.854-.551 1.105-.82.277-.296.477-.525.602-.685-1.008-2.753-1.558-5.431-1.649-8.034-.051-1.457.016-2.893.202-4.306.21-1.441.551-2.873 1.022-4.296-.489-1.312-.86-2.628-1.115-3.948-.255-1.32-.406-2.683-.455-4.088-.095-2.707.212-5.493.919-8.358-.725-2.111-1.126-4.286-1.205-6.524-.099-2.837.284-5.678 1.149-8.522zm2.212-.468l-.218.476c-.418 1.474-.733 2.892-.946 4.255-.187 1.361-.256 2.732-.208 4.111.038 1.093.14 2.158.307 3.194.191 1.01.462 2.043.811 3.099l.006.156c.589-.281 1.142-.496 1.658-.644.541-.175 1.019-.296 1.434-.363.413-.092.737-.143.971-.151.26-.035.416-.054.468-.055.208-.008.393.077.556.254.161.15.246.33.253.538.007.208-.064.393-.215.555-.151.161-.33.246-.539.253-.052.002-.233.034-.543.097-.286.036-.66.141-1.123.313-.464.147-.991.36-1.58.642-.59.281-1.189.653-1.798 1.118-.11.577-.208 1.14-.293 1.691-.059.549-.118 1.085-.178 1.608 1.28 1.597 2.357 3.319 3.229 5.164.871 1.82 1.578 3.776 2.12 5.867.585-.411 1.236-.798 1.953-1.162.716-.39 1.434-.728 2.153-1.014.745-.312 1.453-.558 2.124-.738.697-.207 1.305-.319 1.826-.337.208-.008.379.051.514.177.161.125.27.277.329.458.008.234-.05.444-.174.631-.125.161-.304.245-.538.253-1.036.193-2.233.612-3.591 1.259-1.359.647-2.622 1.408-3.79 2.282 1.799 2.283 3.183 4.606 4.152 6.969.993 2.337 1.614 4.803 1.861 7.401.213.148.558.306 1.033.472.474.165 1.076.236 1.805.21 1.509-.053 2.762-.37 3.758-.952s1.781-1.222 2.356-1.919c.6-.725 1.021-1.378 1.261-1.96.239-.607.371-.951.394-1.03-4.16-4.206-6.627-9.188-7.401-14.946-1.917-1.913-3.503-4.047-4.758-6.4-1.229-2.38-2.158-5.097-2.786-8.15-1.681-1.869-3.056-3.932-4.125-6.188-1.044-2.283-1.768-4.759-2.174-7.429-.104.004-.183-.006-.236-.03-.053-.025-.118-.035-.196-.033l.078-.002zm23.541 31.658c-.092.368-.359.56-.801.576-.599.02-1.291-.047-2.079-.202-.761-.155-1.558-.219-2.391-.19l-1.288.045c.589 1.934 1.395 3.756 2.419 5.466 1.024 1.71 2.303 3.281 3.839 4.713l.359.222.015.429c.002.052-.028.314-.09.785-.035.47-.223 1.063-.563 1.779-.315.688-.849 1.436-1.602 2.244-.728.808-1.77 1.561-3.126 2.259l-.614.334c.288.043.602.071.941.085.365.013.743.013 1.133-.001.963-.033 1.78-.153 2.45-.359.696-.233 1.274-.474 1.734-.725.459-.276.814-.549 1.066-.819.276-.296.476-.525.601-.685-.491-1.364-.864-2.719-1.119-4.065-.256-1.346-.407-2.696-.454-4.049-.102-2.915.281-5.756 1.148-8.522-.487-1.286-.858-2.576-1.112-3.87-.254-1.32-.406-2.683-.455-4.088-.094-2.681.212-5.493.917-8.436-.725-2.111-1.127-4.286-1.205-6.524-.099-2.837.284-5.678 1.148-8.522-.187-.15-.441-.336-.762-.56-.32-.223-.705-.431-1.155-.624-.45-.193-.989-.343-1.618-.451-.604-.136-1.284-.19-2.039-.164-.754.027-1.416.115-1.984.265-.569.124-1.071.285-1.507.483-.436.197-.794.392-1.074.584-.28.192-.495.369-.646.531.703 2.216 1.093 4.444 1.171 6.682.091 2.603-.226 5.089-.951 7.46.593-.178 1.175-.315 1.745-.413.595-.099 1.154-.158 1.674-.176 1.484-.052 2.593.001 3.328.158.735.156 1.25.347 1.544.571.294.198.431.389.411.572l.007.195c.008.234-.076.433-.253.595-.152.136-.331.207-.54.215-.052.001-.118-.022-.198-.072-.08-.075-.252-.147-.515-.216-.237-.07-.591-.123-1.061-.159-.471-.061-1.11-.078-1.917-.05-.651.023-1.364.113-2.14.27-.751.157-1.524.405-2.32.746.382 1.237.686 2.477.912 3.72.225 1.217.359 2.45.403 3.699.016.469.02.938.01 1.407-.011.443-.033.913-.068 1.409l.891.907.332.536c.105.778.25 1.581.436 2.408.676-.023 1.419-.01 2.229.04.809.023 1.567.088 2.274.194.707.105 1.299.254 1.774.446.476.192.719.444.73.756l.006.156zm78.84-32.38l-.217.515c-.974 1.963-1.688 3.903-2.142 5.821-.455 1.892-.648 3.814-.58 5.766.034.989.146 1.949.335 2.881l-.14.473c-1.683 4.046-2.458 7.969-2.325 11.768.024.677.073 1.353.149 2.028.075.649.189 1.309.343 1.981l-.174.632c-1.875 3.765-2.743 7.639-2.603 11.621.025.729.076 1.457.154 2.183.103.7.232 1.413.387 2.137l.092.387-.223.321c-.025.053-.149.227-.373.521-.224.294-.591.607-1.101.937-.483.356-1.123.678-1.92.966-.797.315-1.768.492-2.913.532-.989.035-1.877-.013-2.663-.141-.786-.129-1.496-.313-2.13-.551-.608-.24-1.151-.507-1.631-.803-.454-.323-.843-.648-1.167-.976-.783-.78-1.362-1.685-1.737-2.714l-.09-.349.26-.4c-.61-.291-1.077-.601-1.401-.928-.299-.354-.449-.558-.451-.61l-.245-.304-.014-.39c.057-.602.076-1.176.057-1.722.006-.574 0-1.121-.018-1.641-.043-1.249-.215-2.442-.516-3.578-.274-1.137-.721-2.385-1.342-3.744-1.372 3.253-1.995 6.662-1.871 10.227.023.651.072 1.301.146 1.95.1.621.201 1.256.301 1.904l.092.388-.223.32c-.024.053-.149.227-.373.522-.199.267-.527.578-.983.933-.458.329-1.046.649-1.765.96-.694.285-1.534.458-2.522.518-.737.547-1.658 1.036-2.764 1.465-1.078.455-2.32.706-3.725.755-.963.034-1.801-.067-2.513-.303-.684-.21-1.266-.451-1.744-.72-.453-.271-.801-.533-1.044-.785s-.379-.39-.406-.416l-.245-.304.065-.393c.034-.522.055-1.031.064-1.526.009-.496.004-1.004-.014-1.524-.073-2.082-.406-4.142-.998-6.18-.593-2.064-1.486-4.118-2.677-6.161l-.213-.5c-.099-2.811-.529-5.441-1.292-7.89-.763-2.448-1.887-4.78-3.371-6.996l-.178-.619c.034-.522.055-1.031.064-1.526.008-.496.004-1.004-.014-1.524-.15-4.268-1.434-8.223-3.854-11.865l-.248-.382.216-.516c.001.026.136-.213.405-.718.269-.504.732-1.068 1.387-1.69.681-.649 1.585-1.254 2.712-1.814 1.127-.56 2.549-.871 4.267-.931.781-.027 1.486.026 2.116.16.629.109 1.168.246 1.617.413.449.167.793.324 1.033.472.266.147.425.233.478.257l.442.336.019.547c-.04.366-.053.731-.04 1.096l.037 1.054c.079 2.264.414 4.389 1.004 6.375.59 1.96 1.489 3.831 2.698 5.612l.097.544c.071 2.03.267 3.926.589 5.686.322 1.761.837 3.437 1.544 5.028.323-1.184.544-2.326.662-3.424.118-1.099.156-2.234.116-3.405-.04-1.145-.161-2.365-.363-3.661l-.089-.31.145-.317c.782-1.487 1.373-2.863 1.772-4.127.423-1.292.676-2.643.757-4.053l-.003-.078-.252-.499.143-.396c.001.026.123-.2.367-.677.243-.504.654-1.052 1.232-1.646.604-.62 1.405-1.195 2.403-1.725.997-.53 2.251-.822 3.76-.874.729-.026 1.383.03 1.961.166.604.135 1.117.3 1.541.493.449.167.794.337 1.034.511.266.147.425.233.478.257l.403.338.019.546c-.039.367-.054.706-.043 1.018l.032.898c.035 1.015.119 1.924.251 2.727.158.777.38 1.538.666 2.283.286.72.637 1.45 1.054 2.191.417.741.914 1.558 1.493 2.45l.175.541c.029.833.068 1.587.118 2.263.05.675.11 1.299.183 1.869.072.571.155 1.102.251 1.594.12.465.254.929.4 1.393.117-1.124.157-2.22.12-3.287-.023-.651-.084-1.287-.184-1.909-.075-.649-.163-1.297-.264-1.945l-.013-.39.148-.24c2.106-3.852 3.088-7.834 2.944-11.946-.036-1.041-.153-2.131-.349-3.271l-.094-.466.375-.443c.025-.027.152-.123.381-.287.228-.19.56-.397.995-.62.461-.225 1.014-.427 1.659-.606.671-.206 1.448-.324 2.333-.355 1.588-.055 2.949.118 4.083.522 1.135.403 2.063.866 2.785 1.388.722.522 1.26 1.024 1.616 1.507.355.457.546.71.574.762l.248.382zm-2.223.156c-.163-.203-.433-.467-.809-.793-.377-.352-.858-.674-1.441-.966-.559-.319-1.245-.582-2.06-.788-.789-.207-1.691-.293-2.706-.257-.911.032-1.675.176-2.291.432-.617.23-1.092.455-1.423.675.07.518.128 1.038.172 1.557.043.494.073.988.091 1.482.132 3.8-.612 7.474-2.234 11.022.284-.062.557-.097.817-.106l.781-.028c.937-.032 1.786.029 2.547.185.787.155 1.458.34 2.013.555.553.189.99.383 1.31.58.344.17.543.267.596.292.215.175.327.418.338.731.008.208-.078.38-.255.517-.152.135-.332.207-.54.214-.052.002-.145-.06-.28-.186-.136-.151-.401-.298-.797-.441-.396-.143-.948-.267-1.655-.372-.708-.132-1.648-.177-2.819-.136-.442.015-.884.057-1.324.124-.442.042-.908.136-1.398.283.071.519.128 1.038.172 1.558.044.52.075 1.04.094 1.56.129 3.696-.459 7.39-1.763 11.084.73.001 1.592.075 2.587.222 1.021.121 1.991.296 2.911.524.919.203 1.697.462 2.333.779.636.29.959.591.97.904.007.208-.051.392-.176.553-.099.16-.265.244-.499.252-.209.007-.34-.014-.394-.064-1.031-.433-2.267-.755-3.707-.965-1.416-.238-2.891-.329-4.427-.276l.053 1.523c.089 2.524-.114 4.942-.606 7.252-.494 2.284-1.303 4.475-2.429 6.573.085.18.264.46.538.841.274.381.678.771 1.213 1.169.535.373 1.237.7 2.106.982.87.283 1.943.402 3.218.357.676-.024 1.273-.097 1.79-.219.516-.148.953-.32 1.311-.515s.651-.374.88-.539c.254-.191.457-.354.609-.49-.285-1.423-.451-2.837-.5-4.243-.149-4.242.751-8.325 2.699-12.25-.154-.672-.269-1.346-.344-2.02-.05-.676-.086-1.339-.109-1.99-.07-2.004.094-4.016.493-6.036.424-2.022 1.081-4.116 1.969-6.284-.067-.441-.122-.895-.165-1.362-.042-.468-.071-.923-.086-1.365-.141-4.034.734-8.065 2.626-12.091zm-37.047 28.185c.047-.158.094-.303.141-.435.074-.133.147-.279.22-.438-1.03-1.892-1.804-3.898-2.321-6.016-.492-2.146-.782-4.481-.87-7.005-2.423-3.72-3.717-7.948-3.883-12.685l-.031-.898c-.01-.286.005-.6.045-.94-.317-.145-.779-.298-1.384-.459-.605-.162-1.35-.227-2.234-.196-1.067.037-1.999.213-2.796.528-.798.288-1.477.624-2.037 1.009-.559.384-1.015.765-1.367 1.142-.325.376-.537.657-.635.843 2.426 3.798 3.716 7.909 3.87 12.333l.045 1.289c1.197-.798 2.339-1.32 3.424-1.566 1.086-.247 2.033-.384 2.839-.412.547-.019.964-.021 1.251-.005.313.015.549.059.708.132.159.073.253.16.283.264.056.102.086.231.092.387.009.261-.063.459-.214.594-.153.11-.307.167-.463.173l-.664.023c-.286.01-.676.049-1.168.119-.493.069-1.062.193-1.707.372-.619.178-1.288.436-2.005.774-.718.337-1.432.792-2.142 1.364 1.321 2.013 2.335 4.166 3.04 6.461.731 2.267 1.192 4.661 1.384 7.182 1.411-.648 2.854-1.103 4.331-1.363 1.502-.261 2.864-.412 4.088-.455.001.026.014.038.04.038.027.025.067.036.119.035-.01-.287-.033-.56-.068-.819-.036-.285-.059-.571-.069-.857l.138-.513zm11.656 1.351c-.1-1.377-.219-2.532-.355-3.466-.112-.96-.299-1.839-.562-2.638-.262-.799-.615-1.594-1.06-2.386-.445-.793-1.011-1.724-1.7-2.794l-.166-.268-.013-.391c.036-.444.047-.874.033-1.291l-.041-1.171-.021-.585c-.262-.043-.536-.073-.824-.089-.287-.016-.574-.019-.86-.009-.364.013-.767.053-1.207.121-.416.04-.843.133-1.28.279.072.571.129 1.103.173 1.596.043.494.073.975.089 1.443.057 1.64-.057 3.22-.343 4.742-.259 1.52-.722 3.191-1.388 5.012.678.003 1.488.079 2.431.228.969.123 1.887.299 2.755.529.868.23 1.607.504 2.217.822.61.291.921.606.932.944.009.235-.063.419-.215.555-.152.11-.307.167-.463.173l-.234.008c-.078.002-.144-.021-.198-.072-.9-.411-2.045-.736-3.434-.974-1.39-.238-2.761-.334-4.115-.286.103 2.941-.102 5.658-.614 8.151-.486 2.493-1.328 4.88-2.525 7.163.086.205.252.499.5.881.274.382.665.759 1.173 1.132.534.372 1.21.7 2.028.985.843.257 1.889.364 3.138.32 1.197-.042 2.114-.269 2.751-.682.663-.414 1.108-.743 1.334-.985-.198-1.192-.318-2.399-.361-3.622-.077-2.213.095-4.368.517-6.468.42-2.125 1.117-4.182 2.09-6.17-.002-.052-.016-.091-.043-.116-.027-.025-.041-.064-.043-.116l-.096-.505zm9.815-5.463c-.416-.741-.766-1.432-1.049-2.074-.284-.667-.517-1.376-.7-2.125-.156-.75-.276-1.58-.36-2.489-.084-.909-.161-1.988-.23-3.236-.608-.969-1.134-1.863-1.579-2.681-.42-.819-.774-1.628-1.062-2.425-.29-.824-.515-1.676-.676-2.556-.136-.908-.224-1.934-.264-3.079l-.039-1.132c-.344-.144-.819-.323-1.426-.537-.581-.214-1.288-.306-2.12-.277-.937.032-1.753.191-2.446.476-.694.285-1.282.605-1.765.961-.482.355-.874.708-1.174 1.057-.301.349-.5.617-.598.802.638 1.099 1.18 2.07 1.626 2.914.446.818.813 1.64 1.103 2.463.288.798.5 1.65.636 2.558.161.88.263 1.932.306 3.155 1.017-.713 1.991-1.177 2.922-1.392.955-.242 1.798-.375 2.526-.401.573-.02 1.016-.009 1.33.032.314.015.55.059.709.132.158.072.253.16.282.263.03.103.048.233.053.389.007.209-.051.393-.176.554-.125.16-.304.245-.538.253-.053.002-.118-.009-.197-.032-.053-.024-.275-.03-.665-.016-.312.011-.689.05-1.129.118-.441.067-.932.188-1.473.364-.515.174-1.066.428-1.654.761-.563.306-1.122.717-1.677 1.231.608.995 1.107 1.851 1.497 2.567.389.69.7 1.382.932 2.078.233.695.416 1.457.549 2.287.133.829.248 1.867.343 3.115 1.076-.533 2.197-.911 3.361-1.134 1.165-.223 2.242-.352 3.231-.386l.937-.033.654-2.525zm-24.581 20.246c1.028-1.886 1.805-3.894 2.33-6.023.551-2.13.824-4.38.819-6.751-.384.169-.913.344-1.584.524l-2.132.504c-.749.183-1.524.392-2.323.629-.775.209-1.482.481-2.121.817 2.227 4.091 3.414 8.232 3.56 12.422.016.442.019.898.009 1.368-.01.469-.032.952-.067 1.448.216.201.629.46 1.239.778.61.291 1.461.418 2.554.38.39-.014.832-.069 1.323-.164.492-.095.983-.217 1.473-.364-1.105-.3-2.005-.712-2.701-1.235-.671-.55-1.198-1.091-1.581-1.625-.385-.56-.649-1.033-.792-1.419-.119-.412-.179-.632-.18-.658l.174-.631zm23.032-12.022l-.041-1.172c-.015-.416-.056-.845-.123-1.285l.061-.471.505-1.23c-.439.12-.943.242-1.512.366-.543.123-1.111.26-1.705.411-.594.151-1.175.315-1.742.491s-1.081.39-1.541.64c.503.973.925 1.883 1.268 2.731.341.822.616 1.62.826 2.394.235.774.405 1.537.51 2.289.13.751.21 1.53.238 2.337.016.468.008.976-.025 1.525-.007.547-.027 1.108-.059 1.683.109.126.244.252.404.376.161.125.387.247.678.368.773-1.721 1.362-3.527 1.765-5.417.403-1.89.567-3.902.493-6.036zm-14.137-24.248c-.156.735-.365 1.485-.625 2.249-.26.739-.558 1.531-.894 2.377.285-.062.544-.097.778-.106l.742-.025.859-.03c.286-.01.56.006.822.049-.158-.802-.379-1.55-.664-2.244-.26-.72-.599-1.477-1.018-2.27zm76.041 19.545c.187.854.292 1.645.318 2.373.028.807-.025 1.539-.158 2.195-.134.63-.298 1.183-.489 1.658-.167.449-.337.82-.509 1.113-.147.265-.233.412-.258.439l-.297.44-.55-.059c-.366-.039-.731-.053-1.095-.04l-1.093.038c.408 1.263.907 2.483 1.495 3.661.589 1.178 1.241 2.315 1.957 3.411l.451.609-.487.603-.415.445c-.226.242-.58.541-1.063.897-.483.329-1.109.69-1.877 1.082-.742.39-1.63.721-2.663.992-.49.147-.98.268-1.472.364-.467.068-.934.111-1.403.127-.676.024-1.303-.007-1.879-.091-.55-.085-1.023-.186-1.418-.302-.396-.143-.712-.262-.95-.358-.212-.097-.331-.145-.357-.144l-.558-.293.057-.627c-.012-.339-.01-.664.005-.978.015-.313.016-.639.005-.977-.063-1.796-.282-3.573-.656-5.332-.1.108-.189.163-.267.166l-.542.175c-1.639.057-3.314.22-5.025.488-1.71.269-3.402.705-5.074 1.311l.042 1.21c.039 1.119.156 2.236.352 3.349l.091.388-.223.321c-.025.026-.15.174-.375.443-.226.268-.58.567-1.064.897-.483.329-1.098.637-1.843.924-.747.26-1.654.409-2.721.447-2.082.072-3.745-.169-4.989-.725-1.218-.557-2.166-1.201-2.843-1.933-.784-.833-1.326-1.791-1.624-2.875l-.089-.31.223-.32c1.256-2.076 2.157-4.271 2.701-6.583.57-2.339.808-4.849.715-7.529l-.048-1.367.14-.474c.944-2.065 1.615-4.108 2.014-6.128.423-2.048.599-4.099.527-6.155-.018-.521-.049-1.041-.093-1.56-.044-.52-.102-1.039-.172-1.558l-.092-.388.224-.32c2.365-3.913 3.469-8.095 3.314-12.545-.014-.391-.041-.794-.081-1.21-.042-.44-.096-.882-.164-1.322l-.016-.469.339-.363c.025-.027.152-.123.381-.287.254-.192.599-.386 1.035-.584.435-.223.962-.424 1.581-.602.645-.179 1.384-.283 2.217-.312 1.614-.056 2.989.143 4.125.599 1.163.454 2.106.968 2.829 1.542.724.575 1.25 1.103 1.58 1.587.356.483.547.737.574.762l.252.499-.218.477c-.101.107-.15.187-.148.239l.546-.019c1.146-.04 2.046.007 2.702.14.682.133 1.049.198 1.102.196l.48.335-.059.55c-.041.314-.056.627-.045.939l.031.898c.162 4.633 1.403 8.837 3.724 12.612l.172.463.037 1.054c.048 1.354.145 2.653.293 3.899.147 1.219.396 2.383.747 3.491.513-.226 1.013-.465 1.499-.716.487-.252.959-.529 1.418-.832l.382-.247.513.138c.027.025.2.136.52.334.345.196.734.521 1.167.975.459.453.923 1.062 1.393 1.828.495.738.892 1.675 1.192 2.811zm-19.673-29.487c-.165-.229-.436-.52-.813-.871-.377-.352-.857-.687-1.442-1.005-.559-.345-1.247-.634-2.063-.866-.789-.233-1.705-.331-2.746-.295-.911.032-1.662.15-2.255.352-.592.203-1.028.388-1.309.554.065.363.103.726.116 1.09l.037 1.055c.074 2.134-.115 4.173-.568 6.117-.453 1.944-1.142 3.87-2.065 5.779.208-.008.403-.027.584-.06.18-.058.374-.091.583-.098 1.015-.036 1.929.036 2.743.217.814.18 1.512.39 2.094.63.608.239 1.085.47 1.431.693.346.196.532.307.559.332.267.173.404.377.412.611.01.286-.087.498-.29.635-.178.137-.371.209-.579.216-.182.006-.315-.054-.397-.182-.027-.025-.186-.097-.477-.217-.266-.147-.648-.29-1.148-.429-.475-.166-1.053-.302-1.734-.409-.657-.133-1.388-.186-2.195-.158-.703.025-1.455.129-2.256.314.013.364.038.715.076 1.052.037.312.062.65.074 1.014.144 4.112-.588 8.137-2.197 12.076.731.027 1.594.127 2.591.301.995.147 1.953.348 2.874.603.921.254 1.7.553 2.337.895.663.316 1 .656 1.013 1.02.008.234-.063.419-.215.555-.152.136-.332.207-.54.214-.104.004-.182-.006-.235-.031-.054-.05-.12-.074-.198-.071-.981-.487-2.206-.861-3.675-1.122-1.469-.288-2.919-.407-4.351-.357.102 2.915-.143 5.608-.734 8.078-.566 2.443-1.513 4.808-2.84 7.096.085.179.265.485.54.919.275.407.694.822 1.256 1.246.587.396 1.329.748 2.225 1.056.923.306 2.048.436 3.375.39 1.25-.044 2.206-.26 2.87-.648.664-.388 1.109-.703 1.335-.945-.096-.518-.166-1.037-.211-1.556l-.054-1.562c-.082-2.342.126-4.603.623-6.784.496-2.206 1.306-4.384 2.43-6.534-.193-1.035-.307-2.074-.344-3.115-.075-2.16.123-4.316.595-6.47.498-2.154 1.267-4.382 2.307-6.686-.063-.31-.1-.622-.11-.934l-.035-.976c-.075-2.16.124-4.304.597-6.431.499-2.128 1.298-4.227 2.399-6.298zm3.283 39.167c1.761-1.052 3.621-1.873 5.581-2.462 1.986-.591 4.059-.924 6.219-.999l1.093-.038c.364-.013.756-.001 1.174.037.146-.292.325-.754.538-1.387.211-.659.302-1.431.271-2.315-.034-.963-.181-1.818-.442-2.565-.261-.772-.571-1.426-.928-1.961-.331-.535-.672-.953-1.021-1.254-.35-.326-.619-.552-.805-.675-3.623 2.211-7.426 3.386-11.408 3.525l-.897.031c-.287.01-.574-.006-.862-.048.638 1.098 1.078 2.151 1.322 3.159.243.982.377 1.837.402 2.566.022.624.013 1.12-.026 1.486-.04.34-.109.603-.207.789-.073.159-.173.267-.301.323-.13.031-.259.048-.389.053-.209.007-.38-.052-.515-.178-.108-.126-.166-.294-.174-.502l-.036-1.054c-.011-.312-.051-.702-.119-1.168-.044-.494-.153-1.011-.328-1.552-.15-.568-.366-1.16-.649-1.776-.283-.641-.657-1.279-1.122-1.915-.276.297-.722.573-1.339.829-.616.256-1.221.472-1.814.649.002.053.016.078.042.077.026-.001.04.025.041.077l.089.309-.222.36c-.835 1.462-1.499 2.958-1.993 4.486-.468 1.528-.79 3.103-.968 4.725 1.699-.581 3.379-.978 5.039-1.193 1.686-.241 3.27-.387 4.754-.439zm3.652-21.899c-.045.21-.156.383-.334.52-.153.109-.307.167-.463.172-.052.002-.105-.009-.158-.033l-.195.007c-.053-.025-.118-.035-.196-.033-.521.019-1.246.161-2.174.428-.93.241-1.864.743-2.801 1.505-.052.002-.091.016-.116.043-.025.027-.063.041-.116.043 1.184 2.539 2.089 4.956 2.716 7.254l.234-.009c2.265-.079 4.439-.48 6.525-1.205-.412-1.34-.722-2.749-.93-4.227-.207-1.479-.34-3.037-.397-4.677-2.437-4.11-3.737-8.521-3.902-13.231-.007-.208-.001-.417.017-.626.018-.235.022-.483.013-.743-.079-.05-.289-.081-.628-.096-.314-.015-.691-.015-1.134.001l-.976.034c-.312.011-.636.048-.973.112-.773 1.747-1.325 3.473-1.656 5.178-.306 1.705-.428 3.416-.368 5.133l.034.976c.011.313.048.624.111.935l.087.27-.148.24-.036.079-.039.002c.176.567.366 1.159.57 1.778.204.618.308.979.312 1.083.966-.685 1.888-1.134 2.767-1.347.904-.214 1.669-.332 2.294-.354.936-.033 1.511.012 1.724.135.212.097.323.289.333.575l.003.078zm-.816 22.542c.243.982.421 1.966.533 2.952.112.96.185 1.935.22 2.924l.058 1.679c.318.145.752.273 1.303.384.551.085 1.19.115 1.919.09.833-.03 1.623-.148 2.372-.357.747-.234 1.416-.492 2.005-.774.59-.281 1.088-.572 1.494-.872.406-.301.711-.546.912-.736-.718-1.173-1.359-2.363-1.922-3.568-.564-1.231-1.051-2.478-1.46-3.74-1.324.124-2.606.351-3.845.681-1.24.33-2.436.776-3.589 1.337zm-8.447-21.398c-.544 1.583-.932 3.147-1.165 4.692-.233 1.546-.323 3.06-.271 4.544l.036 1.054c1.106-.43 2.157-.922 3.154-1.478l.619-.178c.184.045.368.078.551.098.183.019.352.027.509.021-.326-1.109-.73-2.228-1.212-3.358-.457-1.157-.994-2.35-1.61-3.579l-.611-1.816zm59.39-17.395l-.336.441c-3.425 4.159-5.287 8.68-5.585 13.563l.008.234-.226.242c-1.791 2.434-3.126 4.878-4.004 7.332-.879 2.454-1.351 4.985-1.416 7.593l.011.313-.226.242c-1.799 2.2-3.176 4.554-4.131 7.063-.955 2.508-1.461 5.184-1.518 8.026l.014.391-.303.284c-.024.053-.138.161-.34.324-.177.163-.457.342-.842.538-.358.169-.808.341-1.35.516-.542.149-1.177.237-1.906.262-.598.021-1.264-.021-1.997-.126-.708-.105-1.484-.326-2.33-.661-1.477-.522-2.619-1.146-3.426-1.874-.782-.728-1.366-1.424-1.754-2.088-.362-.665-.578-1.244-.647-1.737-.069-.492-.105-.765-.107-.817l.326-.754c1.782-1.938 3.192-4.098 4.229-6.479 1.038-2.382 1.753-5.039 2.145-7.971l-.002-.078c-.442-.714-.937-1.452-1.485-2.215-.548-.763-1.134-1.498-1.758-2.206-.598-.708-1.219-1.351-1.865-1.928-.62-.604-1.25-1.103-1.889-1.497l-.279-.147-.092-.388c-.898-2.6-2.112-4.903-3.641-6.908-1.505-2.032-3.391-3.816-5.659-5.353l-.402-.298-.016-.469c.003.078.049-.08.14-.474.063-.419.214-.945.453-1.579.212-.633.526-1.334.942-2.104.417-.77.965-1.48 1.646-2.13.706-.675 1.559-1.252 2.558-1.73 1-.478 2.189-.741 3.569-.79.52-.018.938.007 1.253.074.341.066.538.099.59.097l.474.14.172.463c1.92 4.988 4.882 8.858 8.887 11.61l.329.458c.198.436.397.911.597 1.425.225.488.489.96.792 1.419-.003-.078.008-.157.031-.236.023-.079.033-.183.028-.313l-.011-.313.226-.242c1.881-2.098 3.302-4.311 4.263-6.637.961-2.327 1.537-4.862 1.728-7.604l-.019-.547.499-.252c.051-.054.345-.194.885-.421.564-.255 1.38-.4 2.447-.438 1.275-.044 2.413.085 3.414.39 1 .277 1.873.663 2.62 1.158.772.469 1.415.98 1.93 1.536.54.554.975 1.073 1.305 1.556.33.484.565.893.707 1.227.167.306.25.447.25.421l.094.466zm-2.2-.314c-.139-.256-.413-.637-.822-1.144-.409-.533-.961-1.048-1.656-1.545-.669-.498-1.478-.926-2.429-1.283-.925-.359-1.972-.518-3.144-.477-.442.016-.844.069-1.206.16-.336.064-.608.125-.814.184-.198 2.535-.715 4.885-1.552 7.051-.836 2.166-2.028 4.24-3.574 6.222 1.175.064 2.224.261 3.148.594.949.332 1.744.695 2.383 1.089.638.369 1.119.704 1.442 1.005.349.301.537.464.564.489.108.1.163.189.166.268.029.077.046.18.05.31.008.235-.076.433-.253.596-.151.135-.331.207-.539.214-.235.008-.394-.065-.477-.218-.053-.024-.266-.16-.64-.408-.374-.273-.892-.555-1.554-.844-.636-.317-1.414-.589-2.334-.818-.894-.229-1.901-.324-3.02-.285-.203 2.378-.696 4.688-1.478 6.931-.755 2.241-1.839 4.415-3.251 6.523.684.159 1.487.417 2.412.776.923.333 1.796.706 2.619 1.12.848.414 1.566.831 2.154 1.254.588.422.888.79.898 1.102.008.208-.064.406-.213.594-.125.16-.317.245-.578.254-.078.003-.169-.007-.274-.029-.08-.049-.122-.113-.124-.191-.428-.324-.934-.632-1.518-.924-.584-.319-1.22-.609-1.906-.872-.661-.263-1.347-.5-2.058-.71-.711-.209-1.42-.38-2.128-.512-.475 2.831-1.244 5.425-2.308 7.781-1.038 2.355-2.423 4.501-4.153 6.438.031.129.173.476.427 1.04.279.538.729 1.108 1.35 1.712.646.603 1.486 1.147 2.519 1.632 1.058.458 2.368.66 3.93.605.729-.025 1.325-.124 1.788-.297.463-.172.795-.34.998-.504.106-2.948.648-5.703 1.627-8.265.978-2.587 2.391-5.021 4.24-7.3.113-2.714.621-5.338 1.523-7.871.928-2.534 2.299-5.057 4.113-7.57.373-4.99 2.257-9.616 5.652-13.877zm-18.562 13.546c-.525-.867-.997-1.698-1.416-2.491-.393-.82-.811-1.587-1.253-2.301-2.005-1.468-3.785-3.177-5.338-5.13-1.529-1.979-2.793-4.241-3.794-6.786l-.781.028c-.572.02-1.271.148-2.097.386-.826.211-1.683.67-2.571 1.38-.557.462-1.01.921-1.359 1.376-.349.455-.633.882-.854 1.28-.194.398-.338.768-.43 1.11-.093.316-.149.578-.168.787 4.01 2.909 6.966 6.597 8.868 11.065.668-1.014 1.37-1.82 2.104-2.419.761-.6 1.462-1.054 2.103-1.363.639-.335 1.179-.549 1.619-.643.439-.093.685-.154.736-.182.158.047.317.132.478.257.187.124.283.264.288.42.011.312-.059.536-.211.672-.152.109-.37.208-.654.296-.257.087-.579.203-.965.346-.387.118-.822.342-1.305.671-.458.329-.95.802-1.475 1.42-.527.592-1.058 1.418-1.594 2.479 1.078 1.031 2.146 2.14 3.204 3.328 1.082 1.16 2.09 2.415 3.023 3.764 1.014-1.573 1.831-3.165 2.452-4.776.622-1.612 1.085-3.269 1.39-4.974zm59.571 13.515l-.144.357c-.87 2.688-1.264 5.23-1.18 7.624.041 1.171.186 2.339.435 3.503.275 1.163.657 2.4 1.146 3.712l.21.423-.184.319c-.025.053-.16.292-.405.717-.247.4-.661.844-1.244 1.334-.582.489-1.374.947-2.375 1.373-1.002.399-2.271.626-3.807.68-1.535.053-2.817-.097-3.846-.452-1.003-.382-1.8-.81-2.39-1.285-.591-.5-1.01-.955-1.259-1.363-.249-.408-.387-.638-.415-.689l-.17-.385.144-.357c.549-1.452.942-2.86 1.181-4.223.239-1.364.334-2.748.285-4.153-.033-.963-.133-1.95-.299-2.961-.14-1.037-.374-2.136-.701-3.297l-.018-.508c.318-1.34.535-2.598.65-3.775.115-1.176.154-2.324.114-3.443-.082-2.369-.569-4.749-1.461-7.141l-.168-.346.145-.318c.524-1.425.878-2.845 1.063-4.258.21-1.441.317-2.865.32-4.272l-.39.014c-2.655.092-5.28.666-7.875 1.721l-.309.089-.396-.143c-.052.002-.291-.107-.715-.327-.425-.219-.907-.606-1.448-1.161-.514-.555-.983-1.307-1.408-2.257-.45-.974-.702-2.216-.755-3.725-.049-1.406.106-2.558.466-3.456.358-.925.763-1.656 1.213-2.192.475-.564.905-.957 1.288-1.179.408-.249.638-.387.689-.415l.307-.167.395.143c1.16.376 2.316.635 3.467.778 1.151.116 2.338.152 3.561.11 1.093-.038 2.263-.118 3.509-.24 1.272-.149 2.46-.45 3.565-.906l.306-.167.318.145c1.343.396 2.604.678 3.782.845 1.204.166 2.392.23 3.563.188 2.109-.073 4.411-.558 6.907-1.453l.463-.172.401.299c.027.025.201.162.523.411.321.25.661.642 1.018 1.176.383.508.732 1.174 1.047 1.996.34.796.543 1.753.608 2.871.041 1.172-.066 2.205-.321 3.099-.257.869-.557 1.609-.9 2.221-.318.584-.628 1.038-.93 1.361-.302.297-.465.485-.488.564l-.38.326-.552-.137c-1.341-.37-2.575-.613-3.699-.73-1.1-.144-2.196-.197-3.289-.159l-1.132.039c-.039.367-.04.718-.002 1.056.037.311.061.623.071.935.039 1.093.141 2.158.307 3.195.193 1.035.451 2.069.773 3.1l.017.468c-.34 1.471-.592 2.822-.758 4.052-.139 1.23-.189 2.43-.148 3.602.042 1.197.187 2.364.435 3.502s.616 2.324 1.102 3.558l.167.306zm-7.861-22.512c-1.573-.284-3.066-.48-4.476-.587-.01 1.225-.098 2.427-.265 3.605-.143 1.152-.375 2.333-.698 3.543.592-.23 1.173-.38 1.744-.452.596-.073 1.155-.119 1.676-.137 1.457-.051 2.553.002 3.288.159.734.131 1.248.295 1.542.493.293.198.43.389.411.572l.007.195c.008.235-.064.433-.214.594-.151.162-.33.246-.539.254-.052.001-.131-.022-.237-.07-.08-.076-.252-.148-.515-.217-.238-.096-.592-.162-1.062-.197-.472-.062-1.111-.079-1.917-.051-.625.022-1.325.112-2.102.269-.75.157-1.523.418-2.317.785.355 1.238.644 2.414.865 3.526.221 1.087.35 2.19.389 3.309.035.989-.008 2.007-.127 3.053-.095 1.02-.239 2.119-.432 3.299.388-.066.79-.119 1.206-.16.441-.041.883-.07 1.326-.085.624-.022 1.315-.02 2.071.006.757.025 1.463.092 2.118.199.68.081 1.246.23 1.696.449.476.192.72.457.732.795.007.209-.078.381-.256.517-.177.137-.344.208-.501.213-.598.021-1.291-.059-2.079-.24-.789-.181-1.599-.257-2.432-.227-.65.022-1.3.084-1.948.185-.648.075-1.296.188-1.942.341.245 1.034.435 2.018.572 2.951.136.907.219 1.803.25 2.688.052 1.484-.054 2.92-.318 4.311-.238 1.389-.617 2.861-1.136 4.417.111.179.288.407.532.685.27.277.632.551 1.084.822.478.244 1.059.458 1.742.643.71.157 1.546.219 2.509.186.962-.034 1.792-.154 2.488-.361.696-.233 1.274-.474 1.734-.725.485-.277.854-.551 1.105-.82.25-.295.438-.523.562-.684-.954-2.703-1.472-5.225-1.554-7.568-.044-1.275.028-2.554.218-3.838.216-1.284.533-2.637.953-4.059-.489-1.312-.859-2.563-1.109-3.753-.225-1.216-.359-2.45-.402-3.699-.043-1.223.005-2.462.143-3.718.165-1.257.417-2.62.756-4.091-.699-2.113-1.088-4.314-1.168-6.604l-.029-.82c-.01-.286.006-.574.048-.862-.57.098-1.151.236-1.744.413-.568.15-1.122.326-1.663.527l-.585.021zm15.678-7.7c-.099-1.352-.384-2.41-.853-3.176-.47-.765-.854-1.312-1.152-1.64-1.287.461-2.487.803-3.599 1.024-1.088.195-2.191.311-3.31.35-.989.035-1.981.004-2.974-.091-.968-.097-2.016-.282-3.146-.555.256.617.434 1.236.533 1.858.126.62.198 1.191.217 1.712.043 1.25-.002 2.202-.135 2.858-.108.629-.249 1.077-.422 1.344-.174.24-.352.364-.534.37l-.274.01c-.208.007-.392-.052-.553-.177-.161-.124-.245-.291-.252-.499-.002-.052.022-.105.073-.159.05-.054.098-.173.143-.357.045-.21.087-.511.125-.903.039-.392.045-.966.018-1.72-.022-.651-.125-1.364-.309-2.14-.157-.775-.446-1.573-.865-2.392-.052.001-.116.03-.193.085-.051.027-.102.042-.154.044-1.112.247-2.2.442-3.263.583-1.064.141-2.116.23-3.157.266-1.249.044-2.475.009-3.678-.106-1.203-.14-2.424-.397-3.662-.77-.177.136-.392.326-.644.569-.252.243-.501.578-.747 1.003-.221.399-.412.888-.574 1.466-.136.579-.19 1.271-.162 2.078.035 1.015.157 1.883.364 2.606.234.721.489 1.312.766 1.771.276.459.562.814.858 1.065.294.224.547.384.759.481 1.364-.491 2.719-.864 4.065-1.119 1.346-.255 2.722-.408 4.127-.457 1.224-.043 2.398.008 3.523.151 1.151.116 2.342.257 3.572.422 1.159-.405 2.269-.704 3.33-.898 1.087-.22 2.203-.35 3.348-.39 1.093-.038 2.202.014 3.328.157 1.15.116 2.396.333 3.736.651.176-.188.362-.442.559-.762.224-.32.419-.692.587-1.115.193-.449.344-.963.454-1.54.11-.577.153-1.23.127-1.959zm50.22 41.241l-.142.395c0 .026-.121.291-.364.795-.217.502-.653 1.065-1.309 1.687-.63.595-1.523 1.161-2.676 1.696-1.129.509-2.592.794-4.387.857-1.171.041-2.165-.055-2.981-.287-.817-.258-1.519-.585-2.106-.982-1.191.224-2.366.526-3.525.905-1.134.352-2.252.808-3.353 1.368l-.229.164-.236-.07c-.651.023-1.277.019-1.877-.012-.574-.032-1.174-.037-1.799-.016-2.108.074-4.273.371-6.496.892-2.197.519-4.164 1.266-5.902 2.238l-.385.17-.315-.067c.079.023-.119-.048-.594-.214-.474-.166-1.033-.485-1.675-.958-.641-.446-1.275-1.076-1.903-1.887-.602-.839-.992-1.92-1.168-3.243-.717-.366-1.317-.762-1.801-1.188-.458-.453-.838-.87-1.138-1.25-.274-.381-.467-.7-.58-.957-.114-.282-.172-.437-.173-.463l-.092-.387.144-.357c.464-.902.864-1.75 1.201-2.544.337-.793.61-1.558.819-2.295.208-.763.351-1.524.429-2.282.103-.786.138-1.634.106-2.545-.037-1.067-.157-2.261-.359-3.583l.06-.51c.619-1.663 1.061-3.203 1.324-4.62.289-1.417.409-2.828.36-4.233-.028-.807-.109-1.625-.242-2.454-.134-.856-.295-1.736-.483-2.641l-.092-.388.148-.24c.558-1.192 1.015-2.276 1.372-3.253.356-1.002.621-2.002.794-2.998-.408-.507-.771-1.185-1.087-2.034-.291-.875-.459-1.938-.502-3.187-.058-1.666.103-3.026.483-4.082.405-1.083.857-1.932 1.357-2.549.526-.618 1.006-1.038 1.441-1.262.435-.224.679-.336.731-.338l.385-.17.357.144c1.377.63 2.76 1.076 4.151 1.34 1.389.238 2.851.33 4.387.277l2.186-.076c.832-.055 1.582-.212 2.251-.47l.348-.09.318.145c1.428.602 2.747 1.05 3.956 1.347 1.209.297 2.413.45 3.612.46.64-.309 1.36-.594 2.159-.857.798-.262 1.718-.411 2.759-.448 1.041-.036 1.97.062 2.785.294.815.206 1.502.455 2.059.749.584.292 1.023.563 1.318.814.322.249.509.386.562.41l.404.377-.14.473c-.246 1.156-.429 2.256-.549 3.303-.095 1.02-.125 2.01-.092 2.974.046 1.301.22 2.559.523 3.773.328 1.187.775 2.422 1.341 3.705l.164.229-.067.315c-.121.995-.218 1.949-.291 2.864-.073.888-.094 1.775-.063 2.66.059 1.691.285 3.312.678 4.862.418 1.523 1.018 3.052 1.802 4.588l.164.229-.142.396c-.247 1.155-.431 2.23-.552 3.224-.123.968-.168 1.908-.136 2.819.048 1.379.264 2.727.649 4.042.384 1.29.967 2.69 1.749 4.2l.167.307zm-28.778-28.271l-.069.237c-.693 1.796-1.184 3.429-1.471 4.898-.288 1.443-.408 2.867-.359 4.273.029.833.11 1.664.243 2.493.134.829.32 1.695.56 2.599l.089.31-.144.356c-.702 1.536-1.24 2.897-1.616 4.083-.35 1.159-.543 2.351-.579 3.577.622-.1 1.296-.215 2.021-.344.725-.13 1.424-.272 2.096-.425.697-.181 1.341-.386 1.933-.615.617-.23 1.129-.495 1.535-.796l.307-.167.315.067c.918.176 1.808.288 2.67.337.887.047 1.748.056 2.58.027 1.146-.04 2.288-.158 3.428-.355-.157-.75-.353-1.525-.59-2.324-.211-.827-.476-1.69-.794-2.591l-.094-.466c.251-1.755.348-3.465.29-5.13-.059-1.692-.298-3.299-.716-4.822-.393-1.55-.956-3.12-1.689-4.71l-.167-.306.065-.394c.251-1.025.45-2.022.599-2.991.148-.969.232-1.936.25-2.901-.366-.04-.732-.066-1.097-.079-.339-.014-.678-.016-1.016-.004-.729.026-1.456.103-2.181.233-.725.129-1.5.313-2.326.55l-.588-.058c-.76-.103-1.454-.222-2.084-.357-.631-.16-1.275-.307-1.931-.44-.038.392-.051.77-.038 1.134l.038 1.093c.02.573.066 1.158.139 1.754.099.596.225 1.23.379 1.902l.012.352zm-4.886-6.748c-1.744.061-3.517.397-5.32 1.007l-.388.091-.318-.145-.117.004c-.052.002-.105-.022-.159-.072-.136.578-.31 1.17-.524 1.777-.188.58-.414 1.2-.677 1.861.362-.065.712-.116 1.05-.154.337-.038.675-.063 1.013-.075.859-.03 1.643.021 2.351.153.734.13 1.364.278 1.891.442.527.164.936.319 1.228.465l.556.254c.239.122.364.352.376.691.007.208-.064.406-.214.593-.15.162-.343.247-.577.255-.052.002-.145-.047-.279-.147-.134-.125-.373-.247-.716-.365-.344-.145-.843-.258-1.497-.339-.629-.108-1.49-.143-2.584-.105-.468.016-.975.06-1.519.131-.545.071-1.101.195-1.668.371.159.828.278 1.619.356 2.372.104.726.168 1.453.194 2.182.046 1.327-.038 2.646-.253 3.956-.19 1.284-.531 2.703-1.024 4.257.781-.027 1.694.006 2.74.1 1.045.094 2.028.242 2.947.445.918.176 1.695.409 2.33.7.661.263.997.564 1.009.903.007.208-.078.393-.254.556-.152.135-.332.207-.54.214l-.156.006c-.052.001-.105-.023-.159-.073-.898-.334-2.001-.582-3.309-.744-1.284-.19-2.563-.263-3.838-.218l-1.054.037c.07.518.127 1.024.17 1.518.042.468.071.923.087 1.365.034.989 0 1.889-.101 2.701-.076.81-.231 1.61-.464 2.4-.207.789-.478 1.593-.815 2.413-.337.793-.737 1.654-1.199 2.582.111.205.303.485.576.84.273.355.676.706 1.21 1.052.558.319 1.259.608 2.101.865.868.23 1.927.323 3.176.28.703-.025 1.312-.111 1.828-.26.516-.148.966-.32 1.35-.516.384-.195.703-.402.956-.619.253-.218.455-.394.607-.53-.242-.955-.442-1.834-.601-2.637-.132-.803-.211-1.569-.236-2.297-.053-1.51.117-2.975.511-4.396.393-1.421.976-3.005 1.749-4.751-.24-.904-.44-1.783-.6-2.637-.134-.855-.216-1.7-.245-2.532-.052-1.484.078-2.987.39-4.509.337-1.549.85-3.274 1.539-5.174-.155-.698-.27-1.385-.346-2.059-.049-.676-.084-1.313-.105-1.912l-.041-1.171c.011-.417.049-.823.114-1.216-.42-.063-.838-.114-1.256-.151-.393-.039-.81-.05-1.252-.035zm23.51-5.042c-.052-1.484-.261-2.623-.628-3.418-.34-.796-.634-1.372-.881-1.728-.903.24-1.757.426-2.56.558-.777.132-1.543.21-2.298.237-1.171.041-2.321-.05-3.449-.27-1.102-.222-2.351-.557-3.748-1.003.147.49.255.955.322 1.396.068.44.109.882.125 1.325.052 1.509-.025 2.645-.233 3.408-.182.762-.398 1.304-.647 1.625-.223.321-.439.498-.646.531l-.234.008c-.208.007-.38-.065-.516-.216-.135-.152-.206-.306-.211-.462-.002-.052.034-.132.109-.238.074-.107.158-.306.252-.595.095-.29.172-.697.231-1.22.059-.55.073-1.293.04-2.23-.019-.546-.092-1.13-.218-1.75-.1-.649-.28-1.307-.538-1.975-.65.022-1.287.084-1.908.184-.622.1-1.233.16-1.831.18-1.614.057-3.18-.032-4.7-.265-1.494-.26-2.995-.703-4.502-1.328-.204.137-.457.341-.76.613-.278.244-.552.605-.822 1.084-.27.478-.497 1.085-.679 1.821-.183.736-.255 1.65-.217 2.744.029.833.119 1.546.27 2.14.177.593.377 1.095.6 1.504.247.382.48.7.697.953.244.252.445.427.605.526.903-.266 1.781-.48 2.636-.64.854-.16 1.723-.255 2.608-.286 1.38-.048 2.855.03 4.425.236 1.571.206 3.043.558 4.415 1.058.826-.238 1.614-.408 2.366-.513.752-.104 1.506-.17 2.26-.196 1.302-.046 2.595.053 3.88.294 1.312.241 2.758.634 4.341 1.178.151-.162.338-.39.562-.684.225-.295.447-.654.666-1.079.219-.451.396-.965.533-1.543.162-.579.256-1.234.283-1.964zm-21.049 40.837l-.22.399c-.025.027-.15.201-.373.521-.223.321-.589.672-1.097 1.055-.507.382-1.172.744-1.994 1.086-.823.315-1.82.493-2.991.534-.599.021-1.159.027-1.68.02-.523-.034-1.007-.109-1.454-.223.204.618.444 1.144.719 1.577.275.407.548.763.819 1.066.297.276.578.501.845.674.265.147.478.257.636.33.921-.502 1.909-.94 2.964-1.316 1.081-.402 2.176-.74 3.287-1.013 1.137-.275 2.276-.484 3.418-.628 1.14-.17 2.257-.274 3.35-.312.599-.021 1.185-.016 1.76.016.574.033 1.161.038 1.759.017 3.282-1.548 6.744-2.385 10.388-2.512.728-.026 1.458-.025 2.189.001.729.001 1.474.053 2.233.157.223-.321.466-.837.728-1.55.287-.713.412-1.617.374-2.71-.031-.885-.163-1.675-.396-2.37-.233-.722-.502-1.325-.805-1.809-.279-.512-.567-.918-.864-1.221-.298-.328-.527-.555-.688-.679-1.689.866-3.412 1.526-5.168 1.978-1.731.425-3.495.669-5.291.732-.572.02-1.159.015-1.759-.017-.6-.031-1.201-.075-1.803-.132.475.895.818 1.782 1.031 2.661.213.878.332 1.656.355 2.333.032.911.017 1.602-.044 2.073-.063.445-.143.773-.24.985-.097.186-.211.294-.34.325l-.273.009c-.261.009-.484-.048-.671-.172-.161-.15-.246-.343-.255-.577l-.002-.078c.025-.027.049-.093.071-.198.021-.131.028-.314.02-.548.018-.235.02-.548.006-.938-.025-.729-.173-1.597-.442-2.604-.244-1.007-.724-2.072-1.441-3.193-.104.003-.206.059-.307.167-1.159.379-2.345.733-3.559 1.062-1.188.302-2.404.54-3.649.714.073.596.174 1.231.301 1.904.127.647.282 1.346.464 2.095l.089.309zm25.835-14.582c-.063.419-.355.638-.876.656-.708-.132-1.557-.18-2.546-.146-.91.032-1.858.143-2.841.334-.985.165-1.928.38-2.831.646.287.746.52 1.467.701 2.165.18.671.346 1.329.499 1.976.749-.183 1.496-.431 2.241-.743.771-.314 1.553-.68 2.346-1.098l.46-.251.477.218c.001.026.148.138.442.336.292.173.641.473 1.047.902.405.403.815.949 1.23 1.638.414.663.742 1.472.984 2.428-.151-.594-.263-1.19-.336-1.787-.047-.597-.081-1.195-.102-1.794-.034-.989.009-1.994.129-3.014.12-1.047.303-2.16.548-3.342-.812-1.613-1.441-3.206-1.887-4.78-.42-1.601-.662-3.287-.723-5.056-.031-.885-.011-1.798.06-2.739.071-.966.18-1.947.328-2.942-.57-1.388-1.021-2.727-1.352-4.018-.307-1.318-.485-2.68-.534-4.086-.062-1.77.103-3.755.496-5.958-.214-.149-.494-.322-.839-.518-.32-.197-.743-.365-1.269-.503.305.51.575 1.153.81 1.926.236.774.371 1.668.407 2.683l.021.624c-.037 1.174-.222 2.21-.556 3.108-.308.87-.647 1.599-1.018 2.185-.371.56-.721.989-1.049 1.287-.302.298-.466.46-.491.487l-.497.33-.474-.14c-1.398-.498-2.663-.91-3.795-1.236-.03.653-.071 1.319-.126 1.998-.054.68-.16 1.387-.317 2.122.82-.394 1.632-.669 2.434-.828.801-.184 1.527-.288 2.178-.31 1.119-.039 1.967-.004 2.544.106.576.084.984.2 1.224.348.239.122.361.261.366.418l.01.273c.01.286-.1.498-.33.637-.203.137-.383.209-.539.214-.026.001-.066-.011-.119-.035-.053-.024-.171-.046-.354-.066-.158-.046-.393-.077-.707-.092-.313-.015-.743-.013-1.289.006-.729.025-1.572.146-2.528.362-.957.215-1.946.615-2.968 1.198.707 1.59 1.23 3.149 1.57 4.674.339 1.5.537 3.069.595 4.709.042 1.223.011 2.553-.096 3.99.724-.182 1.474-.325 2.252-.43.778-.106 1.545-.172 2.3-.198.468-.016.963-.021 1.484-.013.547-.019 1.056.003 1.527.064.47.036.864.126 1.182.272.318.145.482.361.492.647l.005.156zm1.601 10.028c.062.285.098.557.107.818.035.259.057.519.066.779.035.989-.052 1.878-.258 2.667-.208.763-.446 1.409-.714 1.94.742-.391 1.287-.801 1.637-1.23.349-.455.598-.802.746-1.042-.338-.718-.649-1.411-.933-2.078-.284-.668-.529-1.337-.734-2.007.001.052.016.091.043.116.001.026.014.038.04.037zm60.72-22.953l-.46.251c-1.666.787-3.186 1.661-4.56 2.621-1.348.933-2.561 2.005-3.64 3.215.485 1.182 1.095 2.242 1.831 3.18.736.913 1.695 1.883 2.877 2.91l.248.382c.52 2.223 1.32 4.227 2.399 6.014 1.104 1.785 2.568 3.402 4.39 4.849l.32.185.013.39c.002.052-.015.3-.052.744-.011.444-.148.996-.411 1.656-.238.66-.656 1.378-1.254 2.155-.598.776-1.471 1.523-2.619 2.241-.892.552-1.739.934-2.539 1.144-.774.236-1.46.364-2.059.385-.546.019-1.029-.017-1.449-.106-.42-.09-.776-.195-1.067-.315-.291-.12-.516-.229-.676-.328-.159-.098-.253-.16-.28-.185l-.239-.148-.092-.388c-.166-1.011-.407-1.953-.724-2.828-.291-.876-.66-1.723-1.105-2.541-.446-.819-.969-1.621-1.57-2.408-.574-.788-1.215-1.586-1.92-2.395-.27-.251-.457-.401-.563-.45l-.243-.226-.011-.312c-.25-1.216-.535-2.287-.854-3.214-.294-.954-.69-1.839-1.188-2.656-1.064.845-2.087 1.78-3.068 2.804-.954 1.024-1.816 2.083-2.586 3.178-.044.21-.051.406-.018.587.032.182.052.376.059.585.048 1.379.2 2.729.454 4.049.254 1.294.651 2.596 1.192 3.906l.167.307-.141.435c-.024.053-.159.292-.405.717-.246.4-.661.844-1.243 1.334-.582.489-1.388.934-2.416 1.335-1.001.425-2.27.665-3.805.719-1.536.053-2.818-.11-3.848-.491-1.003-.356-1.812-.771-2.428-1.244-.59-.501-1.01-.955-1.259-1.363-.249-.409-.374-.639-.376-.691l-.171-.424.145-.318c.548-1.478.939-2.964 1.174-4.457.233-1.52.322-3.086.265-4.7-.038-1.093-.141-2.184-.309-3.272-.143-1.116-.379-2.254-.706-3.415l-.018-.508c.268-1.286.471-2.557.61-3.813.164-1.282.225-2.522.183-3.719-.049-1.406-.214-2.768-.495-4.087-.28-1.319-.639-2.635-1.076-3.949l-.089-.31.146-.318c1.019-2.901 1.478-5.784 1.378-8.647-.041-1.17-.172-2.313-.393-3.425-.195-1.114-.495-2.25-.901-3.409l-.172-.463.298-.401.302-.323c.175-.215.44-.459.795-.731.354-.3.813-.59 1.377-.87.562-.306 1.231-.55 2.007-.734.467-.798 1.005-1.43 1.614-1.893.609-.49 1.182-.862 1.72-1.116.565-.254 1.041-.427 1.428-.519.414-.092.646-.153.698-.18l.429-.015.32.223c.779.65 1.634 1.272 2.567 1.865.933.593 1.915 1.105 2.946 1.538 1.032.433 2.112.773 3.241 1.02 1.128.222 2.291.312 3.488.27l.673.25c1.073.874 2.089 1.62 3.049 2.239.985.59 1.992 1.077 3.021 1.457 1.03.382 2.108.67 3.236.865 1.127.195 2.369.308 3.725.339l.51.06.326.38c.002.052.045.167.129.347.111.178.224.435.34.77.115.308.22.696.314 1.161.12.44.189.945.209 1.517.019.521-.014 1.082-.097 1.684-.057.602-.191 1.245-.402 1.93-.327 1.079-.751 1.98-1.274 2.702.31.667.515 1.298.614 1.894.124.569.194 1.074.209 1.517.016.442.002.795-.041 1.057-.043.262-.064.419-.062.471l-.062.471zm-31.939-11.353l-.242-.226c-.053-.024-.174-.137-.364-.339-.189-.202-.395-.495-.617-.878-.222-.409-.435-.91-.638-1.502-.177-.593-.28-1.293-.308-2.1-.024-.676-.02-1.302.012-1.876.059-.576.144-1.1.258-1.573-.385.17-.704.35-.958.542-.228.19-.417.366-.568.528.707 2.32 1.098 4.574 1.174 6.76.087 2.472-.231 4.946-.952 7.42.591-.229 1.172-.379 1.743-.451.597-.073 1.155-.119 1.676-.137 1.457-.051 2.554.015 3.29.198.735.156 1.249.334 1.543.532.293.198.443.389.45.571l.007.195c.007.208-.078.381-.256.517-.152.136-.332.207-.54.214-.052.002-.118-.022-.198-.071-.08-.049-.251-.108-.514-.177-.237-.07-.604-.123-1.1-.157-.47-.036-1.122-.039-1.955-.01-.65.022-1.351.099-2.102.229-.751.131-1.537.393-2.357.786.408 1.237.725 2.476.951 3.719.252 1.242.401 2.527.447 3.854.038 1.093-.001 2.202-.118 3.327-.091 1.123-.247 2.262-.467 3.417.414-.067.829-.121 1.245-.161.441-.042.883-.07 1.326-.086.598-.021 1.276-.018 2.032.008.757.025 1.476.091 2.157.198.68.08 1.245.217 1.695.41.475.166.717.392.727.678.009.234-.075.446-.251.634-.151.162-.33.246-.538.253-.599.021-1.305-.058-2.119-.238-.814-.18-1.69-.254-2.627-.221-.599.021-1.222.081-1.87.182-.649.075-1.271.162-1.867.261.299 1.084.505 2.145.62 3.183.139 1.012.227 2.025.262 3.04.057 1.64-.03 3.232-.263 4.778-.234 1.519-.597 3.056-1.09 4.611.111.178.288.42.534.724.27.277.631.551 1.084.822.477.244 1.058.458 1.742.643.683.158 1.506.221 2.469.187.963-.034 1.792-.154 2.489-.361.695-.232 1.273-.487 1.732-.764.485-.277.853-.564 1.104-.859.276-.296.476-.538.6-.724-1.004-2.623-1.552-5.262-1.645-7.917-.051-1.457.016-2.906.2-4.345.21-1.441.551-2.873 1.023-4.296-.489-1.312-.861-2.628-1.115-3.948-.255-1.32-.408-2.709-.458-4.166-.047-1.328-.003-2.684.131-4.07.16-1.387.423-2.816.788-4.288-.721-2.007-1.12-4.091-1.195-6.251l-.018-.508c-.895-.255-1.8-.432-2.715-.53-.917-.125-1.935-.193-3.056-.206l-.43.015zm30.59-2.67c-1.253-.061-2.391-.178-3.413-.35-1.022-.174-2.008-.426-2.958-.757-.924-.359-1.851-.783-2.78-1.271-.903-.49-1.849-1.082-2.837-1.777-.013 1.12-.174 2.13-.481 3.026-.281.896-.593 1.662-.936 2.3-.316.636-.625 1.129-.925 1.478-.275.349-.424.549-.448.602-.076.081-.165.136-.268.166l-.274.009c-.26.01-.47-.048-.631-.173-.136-.152-.207-.331-.214-.54-.009-.26.036-.444.137-.552.025-.027.149-.2.372-.521.224-.32.456-.771.696-1.353.265-.609.501-1.32.707-2.135.206-.815.292-1.717.257-2.706l-.016-.469c-.005-.13-.15-.19-.436-.18-1.232-.192-2.373-.412-3.424-.662-1.026-.277-2.015-.607-2.966-.991-.925-.385-1.827-.835-2.705-1.352-.878-.516-1.773-1.136-2.684-1.86-.18.058-.54.214-1.078.467-.513.227-1.046.636-1.599 1.229-.526.591-.994 1.376-1.403 2.355-.409.952-.588 2.17-.537 3.654.029.832.157 1.505.384 2.019.252.512.487.895.704 1.148 1.329.005 2.558.106 3.685.301 1.152.168 2.256.442 3.312.822 1.081.38 2.153.85 3.215 1.412 1.061.537 2.19 1.162 3.388 1.876 1.252.034 2.402.15 3.452.348 1.075.197 2.114.486 3.118.868 1.003.382 1.997.856 2.981 1.421 1.009.538 2.074 1.191 3.195 1.96.256-.14.612-.387 1.069-.741.455-.381.907-.879 1.355-1.494.446-.641.824-1.397 1.132-2.267.309-.871.443-1.879.403-3.024-.018-.52-.086-.974-.204-1.36-.092-.388-.207-.697-.345-.927zm3.027 38.55c-1.77-1.424-3.274-3.078-4.512-4.963-1.239-1.911-2.081-3.992-2.524-6.244-.86-.752-1.602-1.481-2.226-2.189-.624-.708-1.172-1.457-1.642-2.249-.471-.791-.892-1.649-1.263-2.575-.345-.926-.655-1.983-.932-3.172-.158-.047-.354-.066-.588-.058l-.742.026c-1.093.038-2.074.281-2.945.728-.871.422-1.609.917-2.215 1.485-.606.542-1.082 1.093-1.427 1.652-.347.534-.554.932-.623 1.195.834.752 1.549 1.47 2.147 2.153.622.655 1.154 1.353 1.597 2.094.468.713.873 1.48 1.214 2.302.341.822.648 1.776.921 2.861.852-.968 1.7-1.688 2.543-2.161.842-.498 1.586-.85 2.23-1.055.67-.232 1.186-.354 1.551-.367l.351-.012c.158.047.291.133.4.26.108.1.19.215.247.343.011.338-.059.562-.211.672-.127.108-.32.18-.579.215-.26.035-.584.086-.972.151-.389.066-.826.225-1.312.476-.487.252-1.033.649-1.64 1.191-.581.515-1.194 1.24-1.839 2.175 1.59 1.508 2.847 3.184 3.772 5.028.924 1.843 1.576 3.723 1.955 5.638.161.125.399.234.715.327.342.092.774.129 1.294.111 1.379-.048 2.528-.362 3.446-.941.943-.606 1.688-1.271 2.236-1.994.548-.722.942-1.387 1.182-1.995.238-.634.368-1.003.391-1.108zm-6.713-26.579l-.401-.299c-.935-.645-1.828-1.213-2.679-1.704-.826-.519-1.649-.959-2.469-1.321-2.308 2.556-5.011 4.618-8.11 6.185.374.248.721.483 1.041.706.321.224.629.474.925.75.718-.338 1.401-.57 2.048-.697.673-.128 1.269-.201 1.79-.219.755-.026 1.355.005 1.801.094.446.088.695.132.747.13l.477.218.092.387c.065.363.142.712.232 1.048.089.309.177.606.265.889 1.058-1.053 2.21-2.005 3.457-2.856 1.274-.853 2.64-1.643 4.1-2.371l-.023-.664c-.008-.234-.044-.52-.108-.856-.038-.338-.129-.712-.274-1.124-.581.541-1.114.938-1.6 1.189-.487.226-.757.339-.809.341l-.502.174zm-13.309-5.046c-1.009-.538-1.952-1.04-2.828-1.504-.877-.491-1.726-.917-2.546-1.279.033.963.145 1.923.335 2.88.189.932.443 1.874.763 2.827l.021.586c-.575 2.208-.904 4.357-.987 6.444.402-.431.765-.86 1.088-1.289.35-.429.623-.829.818-1.201l.57-.489c1.695-.71 3.268-1.547 4.72-2.51 1.476-.989 2.817-2.157 4.02-3.501-1.631-.465-3.452-.74-5.461-.826l-.513-.138zm-3.458 19.624l-.144.357c-.428 1.188-.737 2.397-.929 3.629.651-.779 1.354-1.52 2.111-2.224.757-.73 1.502-1.407 2.236-2.032-.435-.506-.909-1.011-1.421-1.514-.488-.53-1.041-1.084-1.661-1.662l-.32-.223.061-.471c-.001-.026.033-.197.1-.512.066-.341.221-.75.465-1.228.243-.504.589-1.037 1.039-1.6.474-.59 1.105-1.172 1.893-1.747-.321-.223-.667-.445-1.04-.667-.372-.221-.757-.429-1.155-.624-.216.529-.613 1.09-1.192 1.683-.579.594-1.158 1.161-1.738 1.703.094 1.221.252 2.388.474 3.501.247 1.112.598 2.22 1.054 3.325l.167.306zm42.015-34.768l-.216.515c-.419 1.448-.734 2.866-.946 4.255-.187 1.361-.257 2.732-.208 4.111.038 1.093.14 2.158.306 3.194.192 1.01.462 2.03.811 3.06l.02.585c-.707 2.865-1.016 5.599-.925 8.202.046 1.327.196 2.625.449 3.893.252 1.242.62 2.48 1.107 3.713l.168.346-.145.318c-.448 1.345-.766 2.698-.953 4.059-.188 1.336-.258 2.693-.21 4.073.048 1.353.199 2.69.453 4.01.254 1.294.651 2.596 1.192 3.906l.171.424-.145.317c-.024.053-.159.293-.405.718-.247.4-.661.844-1.243 1.333-.583.49-1.387.948-2.415 1.375-1.002.399-2.271.626-3.806.68-1.536.053-2.818-.097-3.847-.452-1.003-.382-1.813-.81-2.429-1.283-.591-.501-1.01-.955-1.259-1.364-.249-.408-.374-.638-.376-.69l-.171-.424.145-.318c.548-1.478.939-2.964 1.173-4.457.234-1.52.323-3.087.266-4.7-.038-1.093-.141-2.184-.309-3.273-.144-1.115-.379-2.253-.706-3.415l-.018-.507c.268-1.286.472-2.544.611-3.774.165-1.256.225-2.509.182-3.758-.05-1.406-.214-2.768-.495-4.087s-.639-2.636-1.076-3.949l-.089-.31.145-.318c1.019-2.902 1.48-5.771 1.38-8.608-.04-1.145-.17-2.274-.391-3.387-.196-1.113-.496-2.25-.901-3.408l-.173-.463.299-.401.452-.485c.275-.322.694-.662 1.254-1.02.586-.386 1.317-.724 2.193-1.015.875-.318 1.924-.498 3.147-.54 1.249-.044 2.335.088 3.258.394.922.28 1.689.606 2.301.975.638.369 1.119.717 1.443 1.044.325.328.5.504.527.529l.404.377zm-2.21.507c-.188-.15-.442-.337-.762-.56-.321-.223-.719-.43-1.195-.623-.476-.218-1.029-.38-1.658-.489-.604-.135-1.284-.19-2.039-.163-.728.025-1.377.113-1.945.263-.568.15-1.07.324-1.506.522-.411.17-.756.365-1.035.583-.28.192-.495.356-.647.492.353 1.16.628 2.31.824 3.45.195 1.113.313 2.256.354 3.427.042 1.197-.02 2.41-.185 3.641-.14 1.23-.397 2.451-.771 3.662.593-.177 1.174-.314 1.744-.412.596-.099 1.154-.158 1.675-.176 1.431-.05 2.514.003 3.249.16.735.157 1.25.334 1.543.532.348.249.513.517.497.804.009.234-.076.432-.252.595-.152.136-.332.207-.54.214-.052.002-.131-.021-.237-.07-.081-.075-.253-.147-.516-.216s-.629-.121-1.1-.157c-.471-.062-1.11-.079-1.917-.051-.65.023-1.351.113-2.101.269-.75.157-1.536.406-2.358.747.408 1.237.725 2.476.951 3.719.251 1.242.4 2.527.447 3.854.038 1.093-.001 2.215-.117 3.366-.091 1.123-.247 2.249-.469 3.377.415-.066.804-.119 1.168-.158.363-.038.753-.065 1.169-.08.599-.02 1.29-.005 2.073.045.783.025 1.528.09 2.235.196.707.105 1.299.254 1.775.446.501.165.756.391.766.677.007.208-.077.393-.254.556-.151.162-.33.246-.539.253-.598.021-1.291-.046-2.078-.201-.761-.156-1.584-.218-2.469-.187-.651.023-1.314.072-1.988.147-.65.049-1.298.15-1.944.303.298 1.084.505 2.145.619 3.183.141 1.038.228 2.051.263 3.04.11 3.175-.341 6.279-1.356 9.311.111.178.288.42.533.724.271.277.632.551 1.084.822.478.244 1.059.458 1.743.642.683.159 1.506.221 2.469.188.963-.034 1.792-.154 2.489-.361.696-.206 1.274-.435 1.735-.686.485-.277.853-.551 1.104-.82.277-.296.477-.538.601-.724-1.009-2.753-1.558-5.431-1.649-8.034-.051-1.457.016-2.893.201-4.306.211-1.441.551-2.873 1.023-4.296-.489-1.312-.861-2.628-1.115-3.948-.255-1.32-.406-2.683-.456-4.088-.046-1.328-.002-2.684.132-4.07.159-1.413.422-2.842.788-4.288-.725-2.111-1.127-4.286-1.205-6.524-.099-2.837.284-5.678 1.149-8.522zm47.987 27.678l-.057.588-.461.251c-2.323 1.358-4.301 2.925-5.933 4.702-1.633 1.751-2.97 3.739-4.013 5.964l-.067.315-.232.086c-1.019.661-2.06 1.453-3.122 2.376-1.062.923-2.069 1.936-3.021 3.037-.952 1.076-1.825 2.214-2.616 3.414-.792 1.2-1.441 2.408-1.945 3.625l-.144.356-.385.17c-.05.054-.269.14-.656.258-.36.116-.84.185-1.439.206-.598.021-1.305-.071-2.12-.277-.789-.207-1.636-.595-2.542-1.162-.414.092-.841.172-1.282.24-.413.092-.867.147-1.362.165-1.535.053-2.818-.111-3.848-.491-1.003-.382-1.813-.81-2.429-1.284-.59-.5-1.01-.955-1.259-1.363-.25-.434-.375-.677-.377-.729l-.167-.307.141-.435c.549-1.452.94-2.938 1.173-4.458.234-1.519.323-3.06.269-4.621-.038-1.093-.142-2.197-.311-3.312-.143-1.115-.379-2.267-.707-3.454l-.018-.507c.268-1.286.472-2.544.611-3.774.165-1.256.225-2.509.181-3.759-.048-1.379-.212-2.728-.493-4.047-.28-1.319-.639-2.623-1.074-3.91l-.092-.388.145-.318c.524-1.425.891-2.845 1.102-4.26.237-1.441.33-2.864.281-4.27-.04-1.145-.171-2.274-.392-3.387-.196-1.14-.497-2.288-.902-3.447l-.174-.502.299-.401.452-.485c.275-.322.693-.663 1.254-1.021.586-.385 1.317-.724 2.193-1.015.875-.317 1.924-.497 3.147-.54l.781-.027c.936-.788 1.817-1.314 2.641-1.577.851-.265 1.602-.408 2.252-.43.573-.02 1.03.002 1.371.069.367.065.577.097.629.095l.356.144.172.424c.503.972 1.149 1.953 1.939 2.942.79.962 1.656 1.896 2.6 2.801.942.88 1.936 1.718 2.98 2.515 1.07.796 2.124 1.515 3.163 2.157l.714.287.317.146.208.344c1.282 2.405 2.84 4.474 4.672 6.208 1.833 1.734 3.994 3.183 6.484 4.347l.474.14.099.582c.001.052.017.117.046.194l.008.234c.028.078.045.168.048.272.018.495-.063 1.175-.241 2.041-.178.866-.576 1.805-1.192 2.817.41.533.728 1.056.954 1.569.253.513.439 1.001.559 1.466.146.438.238.839.277 1.202.039.363.061.636.068.818l.013.391zm-34.706-22.318l-.167-.307c-.054-.05-.126-.243-.216-.579-.09-.335-.145-.802-.166-1.401-.024-.677.066-1.475.268-2.394.202-.945.688-1.952 1.458-3.021-1.088.168-1.952.433-2.591.794-.613.36-1.058.675-1.335.945.353 1.16.628 2.298.823 3.411.195 1.114.313 2.256.354 3.428.086 2.472-.232 4.933-.954 7.381.643-.231 1.264-.383 1.86-.456.597-.073 1.156-.118 1.676-.136 1.406-.05 2.463.005 3.172.162.708.132 1.209.297 1.502.495.347.223.512.477.496.765.008.234-.076.432-.253.595-.151.135-.331.207-.539.214-.052.002-.131-.022-.237-.07-.081-.075-.253-.147-.516-.216s-.63-.122-1.1-.157c-.471-.062-1.11-.079-1.917-.051-.65.023-1.351.113-2.101.269-.75.157-1.536.405-2.358.747.408 1.236.725 2.476.95 3.719.252 1.242.401 2.527.448 3.854.038 1.093-.001 2.215-.117 3.365-.091 1.124-.248 2.25-.469 3.378.415-.066.804-.119 1.167-.158.364-.039.754-.065 1.17-.08.599-.021 1.29-.006 2.073.045.783.025 1.528.09 2.235.196.707.105 1.299.254 1.775.446.5.165.756.39.766.677.01.286-.1.498-.33.636-.23.113-.463.173-.697.181-.604-.135-1.298-.241-2.083-.318-.758-.078-1.554-.102-2.386-.073-.599.021-1.235.082-1.909.184-.649.075-1.271.162-1.867.261.298 1.084.505 2.145.619 3.183.14 1.037.228 2.051.262 3.04.111 3.175-.341 6.278-1.355 9.31.11.179.288.42.533.724.271.278.632.552 1.084.822.478.244 1.059.459 1.743.643.683.159 1.506.221 2.469.188.963-.034 1.792-.154 2.488-.361.697-.207 1.275-.435 1.735-.686.486-.277.854-.551 1.105-.82.277-.297.477-.538.6-.725-.49-1.364-.876-2.705-1.156-4.024-.281-1.319-.445-2.656-.492-4.009-.051-1.457.016-2.893.201-4.307.211-1.414.552-2.846 1.023-4.296-.489-1.312-.861-2.628-1.115-3.948-.255-1.32-.407-2.682-.456-4.088-.046-1.327-.002-2.684.132-4.069.159-1.413.422-2.842.788-4.288-.286-.72-.507-1.455-.663-2.205-.157-.75-.287-1.501-.392-2.253-.994-.878-2.039-1.701-3.135-2.47-1.095-.77-2.264-1.42-3.507-1.95l-.396-.142zm32.355 12.081c-2.279-1.093-4.292-2.417-6.04-3.971-1.749-1.581-3.286-3.416-4.609-5.507-.433 1.032-.963 1.91-1.589 2.635-.6.725-1.192 1.319-1.775 1.782-.558.437-1.042.753-1.452.95-.41.197-.628.308-.653.335-.049.08-.139.123-.269.127-.234.008-.433-.076-.595-.253-.137-.203-.209-.383-.214-.539-.012-.339.149-.579.483-.721.333-.142.755-.391 1.263-.748.535-.357 1.102-.924 1.7-1.701.598-.776 1.156-1.968 1.673-3.576-.078.003-.144-.008-.197-.032-.053-.024-.119-.06-.199-.11-1.039-.668-2.095-1.412-3.166-2.235-1.045-.823-2.052-1.687-3.022-2.591-.944-.931-1.825-1.89-2.641-2.879-.791-1.014-1.465-2.033-2.022-3.056-.13.005-.261-.004-.392-.025-.131-.022-.3-.029-.508-.022-.521.019-1.205.199-2.053.541-.848.342-1.735 1.05-2.662 2.125-.927 1.075-1.505 2.06-1.734 2.953-.23.868-.336 1.563-.318 2.083l.019.547c.005.13.035.259.092.387 1.244.556 2.48 1.256 3.708 2.099 1.227.817 2.393 1.727 3.496 2.731 1.128.977 2.154 1.996 3.077 3.059.949 1.061 1.754 2.101 2.415 3.12 4.481 2.189 8.181 5.551 11.101 10.088.235-.008.533-.045.896-.11.387-.091.813-.224 1.276-.396.462-.199.935-.463 1.418-.792.509-.357.988-.803 1.439-1.34.45-.537.81-1.058 1.079-1.562.269-.505.474-.968.615-1.39.141-.448.232-.842.272-1.182.04-.34.07-.615.088-.824zm-7.09 9.628c-.208.008-.352 0-.431-.024-.078.003-.13-.008-.157-.033l-.469.016-.33-.496c-.221-.357-.454-.714-.701-1.07-.248-.383-.495-.726-.74-1.03-1.815 2.487-4.062 4.572-6.739 6.255 1.031.433 1.897.963 2.596 1.59.725.6 1.306 1.192 1.743 1.776.462.557.792 1.041.989 1.451.196.41.295.628.296.654.002.052.017.104.045.155.028.051.042.102.044.154.007.209-.064.407-.214.594-.124.161-.304.245-.538.254-.234.008-.419-.064-.555-.216-.135-.151-.273-.355-.412-.611-.114-.282-.282-.602-.502-.959-.221-.357-.547-.724-.977-1.1-.404-.376-.952-.761-1.643-1.154-.665-.394-1.524-.754-2.578-1.082l-.224.32c-.618.934-1.289 1.882-2.011 2.845-.722.964-1.484 1.902-2.286 2.816l.037 1.054c.046 1.328.196 2.638.45 3.932s.651 2.596 1.192 3.906l.171.424-.145.318c-.025.053-.085.173-.183.358-.098.186-.259.426-.483.721-.225.268-.515.565-.868.89-.328.324-.746.638-1.257.943.448.141.868.23 1.26.269.392.038.732.052 1.018.042l.507-.018c.157-.005.299-.036.427-.093.505-1.216 1.166-2.438 1.983-3.665.843-1.228 1.753-2.393 2.731-3.496.977-1.128 2.009-2.167 3.096-3.117 1.087-.95 2.153-1.769 3.198-2.457 2.162-4.48 5.551-8.168 10.167-11.065-.063-.31-.17-.763-.321-1.357-.125-.595-.421-1.223-.887-1.884-.603.646-1.223 1.176-1.86 1.589-.611.412-1.211.746-1.802 1.001-.565.228-1.081.39-1.546.484-.467.069-.831.107-1.091.116zm-14.452 3.632l-.145.318c-.19.554-.352 1.12-.488 1.698-.137.552-.261 1.116-.371 1.693.546-.775 1.081-1.51 1.604-2.206.548-.696.959-1.245 1.232-1.645l.144-.357.307-.167c3.298-1.809 6.016-4.197 8.153-7.164-1.142-1.367-2.382-2.562-3.721-3.583-1.313-1.049-2.752-1.95-4.316-2.703l-.404-.376c-.517-.634-1.047-1.267-1.59-1.899-.545-.659-1.101-1.291-1.669-1.896.062.284.123.556.185.814.086.232.173.489.261.773l.019.546c-.708 2.865-1.016 5.599-.925 8.202.046 1.327.196 2.625.449 3.893.251 1.241.62 2.479 1.106 3.713l.169.346zm54.569-8.824c.041 1.171-.079 2.205-.361 3.101-.282.869-.608 1.61-.978 2.223-.369.612-.718 1.08-1.045 1.404l-.49.525-.379.326-.552-.137c-1.475-.443-2.776-.763-3.903-.958-1.101-.196-2.199-.275-3.292-.237-.807.028-1.598.134-2.373.318l.251.46.168.346-.145.318c-.563 1.791-.931 3.563-1.104 5.315.412-.119.878-.226 1.395-.323.518-.096 1.01-.178 1.477-.247.467-.068.856-.121 1.167-.158.312-.037.48-.055.506-.056l.309-.128.319.184c1.504.547 2.782.958 3.834 1.234s2.112.395 3.179.358c.728-.025 1.519-.131 2.373-.317.853-.186 1.821-.442 2.905-.766l.463-.173.401.299c.028.051.177.215.447.492.295.251.609.657.941 1.218.332.536.643 1.229.933 2.078.289.824.454 1.822.495 2.993.015 1.172-.132 2.193-.44 3.064s-.647 1.612-1.017 2.224c-.37.586-.719 1.042-1.046 1.366-.328.324-.504.499-.529.526l-.5.252-.473-.14c-1.556-.518-2.845-.877-3.868-1.076-1.025-.225-2.018-.321-2.981-.287-.677.024-1.377.113-2.101.269-.725.129-1.565.328-2.52.596l-.547.019c-.733-.105-1.467-.222-2.201-.353-.709-.158-1.43-.302-2.165-.432-.25.295-.577.619-.982.972-.379.326-.864.629-1.453.911-.564.28-1.233.512-2.009.695-.748.209-1.604.33-2.567.363-1.535.054-2.818-.11-3.847-.491-1.004-.382-1.813-.809-2.429-1.283-.591-.5-1.011-.955-1.26-1.363-.249-.434-.375-.677-.377-.73l-.167-.306.141-.435c.549-1.453.94-2.938 1.174-4.458.233-1.519.323-3.06.268-4.622-.038-1.093-.142-2.196-.311-3.311-.143-1.115-.379-2.267-.707-3.454l-.018-.508c.268-1.286.472-2.544.611-3.773.165-1.257.225-2.51.182-3.759-.049-1.379-.213-2.728-.493-4.048-.281-1.319-.639-2.622-1.075-3.91l-.092-.387.145-.318c.524-1.426.891-2.845 1.102-4.26.237-1.441.33-2.865.281-4.27-.04-1.145-.17-2.274-.392-3.387-.196-1.14-.496-2.289-.902-3.447l-.174-.502.299-.401.452-.485c.276-.323.694-.663 1.254-1.021.586-.386 1.317-.724 2.193-1.015.875-.317 1.924-.497 3.147-.54 1.405-.049 2.609.105 3.612.46 1.003.356 1.811.745 2.425 1.166.752-.104 1.542-.249 2.369-.434.828-.185 1.653-.436 2.475-.75l.307-.168.432.063c1.263.347 2.354.608 3.272.785.943.15 1.831.21 2.664.18.911-.031 1.857-.182 2.838-.45.981-.27 2.126-.661 3.437-1.176l.462-.211.439.258c.027.025.201.162.522.412.322.249.674.64 1.058 1.174.382.508.744 1.173 1.086 1.995.366.795.609 1.777.728 2.945l.024.703c.037 1.04-.061 1.97-.293 2.785-.232.816-.507 1.516-.826 2.1-.293.558-.578.985-.854 1.281-.25.295-.388.457-.413.484l-.38.326-.591-.136c-1.259-.243-2.333-.414-3.223-.513-.89-.125-1.713-.175-2.467-.148-.885.03-1.766.166-2.644.405-.852.212-1.884.534-3.093.968l-.544.097c-1.1-.17-2.16-.29-3.178-.358-.993-.07-1.997-.087-3.012-.052.104.727.233 1.452.389 2.176.181.697.401 1.406.66 2.126l.019.547c-.139.474-.253.947-.341 1.419-.062.445-.124.916-.185 1.414.762.181 1.47.3 2.123.355.679.055 1.384.069 2.112.044.963-.034 1.936-.146 2.92-.337.983-.216 2.053-.527 3.212-.933l.463-.172.401.299.485.452c.321.249.661.654 1.019 1.215.384.534.721 1.225 1.011 2.075.315.823.493 1.807.533 2.952zm-15.73-23.997c-.188-.15-.442-.336-.762-.56-.321-.223-.719-.43-1.195-.622-.475-.192-1.028-.342-1.657-.45-.604-.136-1.283-.19-2.038-.164-.729.026-1.377.114-1.945.264-.569.124-1.072.285-1.508.482-.41.197-.755.391-1.035.584-.28.192-.495.369-.646.53.354 1.16.628 2.297.823 3.411.195 1.114.313 2.256.354 3.427.087 2.473-.231 4.933-.954 7.382.644-.231 1.264-.383 1.861-.456.596-.073 1.155-.118 1.676-.137 1.405-.049 2.462.006 3.171.163.708.132 1.209.297 1.503.495.346.222.512.477.495.764.009.235-.076.433-.252.595-.152.136-.332.207-.54.215-.052.002-.131-.022-.237-.07-.081-.076-.253-.148-.516-.217s-.629-.121-1.1-.157c-.471-.061-1.11-.078-1.917-.05-.65.023-1.351.112-2.101.269-.75.156-1.536.405-2.358.747.408 1.236.725 2.476.951 3.719.251 1.242.401 2.526.447 3.854.038 1.093-.001 2.215-.117 3.365-.091 1.124-.247 2.25-.468 3.378.414-.067.803-.119 1.167-.158.363-.039.753-.065 1.169-.08.599-.021 1.29-.006 2.074.045.782.025 1.527.09 2.234.195.708.106 1.299.255 1.775.447.501.164.756.39.766.676.01.287-.1.499-.329.637-.231.113-.463.173-.698.181-.604-.135-1.298-.241-2.082-.318-.759-.078-1.554-.102-2.387-.073-.599.021-1.235.082-1.909.184-.649.074-1.271.161-1.867.26.298 1.084.505 2.145.619 3.184.141 1.037.228 2.05.263 3.039.111 3.176-.341 6.279-1.356 9.311.111.179.288.42.534.724.27.277.631.551 1.084.822.477.244 1.058.458 1.742.643.683.158 1.506.221 2.469.187.963-.033 1.792-.153 2.489-.36.696-.207 1.274-.436 1.735-.686.485-.278.853-.551 1.105-.82.276-.297.476-.538.6-.725-.491-1.364-.877-2.705-1.157-4.025-.281-1.319-.445-2.655-.492-4.008-.051-1.458.016-2.893.201-4.307.212-1.414.553-2.846 1.023-4.296-.489-1.312-.86-2.628-1.115-3.948-.255-1.32-.406-2.683-.455-4.088-.047-1.327-.003-2.684.131-4.07.159-1.412.422-2.842.788-4.287-.725-2.112-1.126-4.287-1.205-6.525-.099-2.837.284-5.677 1.149-8.522zm2.21-.507l-.216.516c-.419 1.448-.734 2.879-.945 4.293-.186 1.388-.256 2.745-.209 4.073l.002.078c1.015-.036 2.033-.006 3.052.088 1.046.094 2.118.2 3.216.318 1.286-.488 2.381-.852 3.285-1.092.929-.24 1.876-.378 2.838-.412.807-.028 1.669.02 2.585.145.917.124 1.978.308 3.186.553.124-.16.273-.388.445-.68.198-.294.368-.651.51-1.073.167-.423.307-.897.419-1.422.111-.551.155-1.165.131-1.842-.025-.728-.127-1.39-.304-1.982-.177-.594-.39-1.107-.64-1.541-.223-.436-.457-.792-.702-1.07-.245-.305-.448-.532-.61-.683-1.363.517-2.509.909-3.437 1.176-.904.24-1.798.375-2.683.406-.677.024-1.408-.016-2.193-.119-.785-.103-1.69-.254-2.713-.452.312.718.545 1.427.7 2.125.154.698.242 1.347.263 1.945.041 1.171-.006 2.059-.141 2.663-.111.577-.253.986-.427 1.226-.174.241-.339.364-.495.37l-.234.008c-.208.007-.393-.065-.555-.215-.161-.151-.246-.33-.253-.539-.001-.026.01-.078.033-.157.05-.08.097-.212.143-.396.046-.184.076-.446.09-.785.04-.34.05-.81.029-1.408-.024-.677-.129-1.442-.315-2.295-.186-.854-.542-1.727-1.069-2.62-.494.017-.999.1-1.515.248-.517.122-1.021.257-1.51.404l.239.148zm-.739 40.402c.047 1.327.197 2.638.45 3.932.254 1.294.651 2.596 1.192 3.906l.007.195c.655.108 1.297.216 1.926.324.629.082 1.246.217 1.852.404.98-.268 1.846-.468 2.597-.598.777-.158 1.529-.249 2.258-.275.52-.018 1.029.003 1.526.064.523.034 1.06.107 1.611.218.55.085 1.141.22 1.773.407.631.16 1.328.357 2.092.591.151-.161.338-.403.561-.723.249-.321.483-.72.701-1.197.218-.477.394-1.017.53-1.621.16-.631.227-1.324.201-2.079-.045-1.275-.276-2.296-.694-3.063-.418-.793-.777-1.354-1.075-1.683-1.083.325-2.026.566-2.828.725-.776.157-1.502.247-2.179.271-.937.033-1.865-.039-2.783-.215-.892-.178-1.983-.465-3.274-.863.176.567.299 1.097.368 1.589.069.467.111.948.129 1.442.049 1.406-.019 2.463-.202 3.173-.158.709-.349 1.211-.573 1.505-.198.294-.388.457-.569.489-.182.007-.261.009-.234.009-.235.008-.433-.064-.594-.214-.136-.152-.207-.319-.213-.501-.001-.026.036-.092.11-.199.075-.107.146-.292.215-.555.068-.289.133-.682.194-1.179.06-.497.077-1.136.05-1.917-.019-.547-.093-1.157-.22-1.83-.129-.699-.362-1.407-.7-2.125-.755.026-1.495.104-2.22.234-.7.103-1.374.204-2.021.305l.036 1.054zm3.117-11.483c1.145-.04 2.281.025 3.407.194 1.153.168 2.465.448 3.938.839.177-.162.377-.404.6-.724.224-.321.432-.706.625-1.155.192-.45.357-.964.493-1.542.136-.578.191-1.231.166-1.96-.025-.703-.111-1.325-.261-1.867-.149-.542-.321-1.005-.517-1.389-.197-.41-.404-.742-.621-.995-.218-.279-.395-.494-.531-.646-1.159.38-2.205.651-3.138.814-.906.161-1.801.258-2.686.289-.807.028-1.602.017-2.386-.034-.784-.077-1.623-.217-2.516-.42-.057.601-.101 1.215-.131 1.841-.005.6.002 1.186.022 1.758.032.911.102 1.808.211 2.69.135.881.322 1.761.562 2.638.931-.189 1.852-.299 2.763-.331z"/>
    <path stroke="#FF4904" stroke-linecap="round" stroke-linejoin="round" stroke-width="2" d="M794.066 68.915c0 29.48 2.293 60.084-1.017 89.46-.895 7.943-1.15 15.894-2.541 23.777-.562 3.181-2.355 6.598-2.542 9.77-.054.914.907-2.677 1.694-3.614 2.597-3.091 5.965-5.812 9.263-8.133 3.944-2.775 3.674-15.073 4.292-19.202 4.143-27.691 7.116-55.236 7.116-83.248 0-5.022 1.061-7.538-3.05-4.97-2.786 1.742-5.78 1.243-9.149 1.243M843.039 85.202c-6.243 20.118-11.167 41.487-19.637 60.836-2.291 5.232-4.148 10.604-6.763 15.691-1.055 2.052-2.997 4.006-3.796 6.131-.23.613 1.183-1.635 1.917-2.109 2.419-1.562 5.283-2.709 8.016-3.597 3.267-1.062 5.689-9.512 6.983-12.199 8.679-18.024 16.533-36.195 22.466-55.31 1.064-3.429 2.317-4.922-1.019-4.036-2.263.601-4.191-.37-6.48-1.081M786.948 213.271c7.447 0 13.251 1.203 14.176-7.116.512-4.613-3.028-9.854-7.173-5.479-1.8 1.901-12.255 8.317-10.279 10.787 2.387 2.984 2.359 8.973 6.326 10.957M807.861 182.496c5.209 1.617 9.011 3.712 11.45-1.863 1.352-3.091.005-7.498-3.838-5.36-1.668.928-10.364 3.113-9.514 5.257 1.027 2.59-.284 6.741 2.064 8.98"/>
</svg>
